<svg viewBox="0 0 2458 1461" fill="none" xmlns="http://www.w3.org/2000/svg">

                <style>
                    
.circle-one {
    offset-path: path("M1418.64 359.49L952.888 631.684L1186.67 766.76L1207.43 754.63");
}

.circle-two {
    offset-path: path("M1204.41 731.84L1030.7 631.47L1380.24 427.189L1264.86 360.522");
}

.circle-three {
    offset-path: path("M790.401 673.282L914.231 744.828L1069.68 653.984L1225.41 743.961");
}

.circle-four {
    offset-path: path("M1225.39 744.132L1031.28 857.573L1188.15 948.212");
}

.circle-five {
    offset-path: path("M1342.4 947.007L1147.99 834.683L1264.56 766.561L1238.58 751.549");
}

.circle-six {
    offset-path: path("M757.916 609.341L836.191 654.567L1030.36 541.093L1225.22 653.681L1147.63 699.024L1223.55 742.885");
}

.circle-seven {
    offset-path: path("M720.818 767.292L875.168 677.088L1070.03 789.675L1108.92 812.146L1216.32 749.38");
}

.circle-eigth {
    offset-path: path("M1555.23 460.826L1419.66 540.055L1497.6 585.087L1225.64 744.029");
}

.circle-nine {
    offset-path: path("M1795.68 546.751L1420.22 766.176L1381.25 743.664L1303.54 789.088L1227.27 745.021");
}

.circle-ten {
    offset-path: path("M1651.06 809.312L1419.9 675.755L1303.35 743.866L1264.54 766.556L1227.27 745.022");
}

.circle-eleven {
    offset-path: path("M1615.84 924.359L1498.76 856.71L1420.31 811.385L1381.46 834.107L1227.27 745.021");
}

[class^="circle-"] {
    fill: #3DF498;
}

.circle-one,
.circle-three,
.circle-five,
.circle-six,
.circle-seven,
.circle-eigth,
.circle-nine,
.circle-ten,
.circle-eleven {
    animation: moveAlongPath 1s ease-out infinite;
}

.circle-two,
.circle-four {
    animation: moveAlongPathReverse 1s ease-out infinite;
}

.circle-one,
.circle-three,
.circle-four,
.circle-seven,
.circle-eleven {
    animation-delay: .5s;
}

@keyframes moveAlongPath {
    100% {
        offset-distance: 100%;
    }
    0% {
        offset-distance: 0%;
    }
}
@keyframes moveAlongPathReverse {
    0% {
        offset-distance: 100%;
    }
    100% {
        offset-distance: 0%;
    }
}


[class^="square-"] {
    animation: colorChange 1s infinite ease-out;
}

.square-one {
    animation-delay: 0.2s;
}

.square-two {
    animation-delay: 0.4s;
}

.square-three {
    animation-delay: 0.6s;
}

.square-four {
    animation-delay: 0.8s;
}

.square-five {
    animation-delay: 1s;
}

@keyframes colorChange {


    0% {
        filter: drop-shadow(0 0 5px rgba(61, 244, 152, 0));
    }
    50% {
        filter: drop-shadow(0 0 15px rgba(61, 244, 152, 1));
    }
    100% {
        filter: drop-shadow(0 0 5px rgba(61, 244, 152, 0));
    }
}
                </style>

            <mask id="mask0_4470_14637" style="mask-type:alpha" maskUnits="userSpaceOnUse" x="0" y="0" width="2458" height="1461">
            <rect x="0.969727" y="0.587646" width="2456.54" height="1460" fill="url(#paint0_diamond_4470_14637)"/>
            </mask>
            <g mask="url(#mask0_4470_14637)">
            <path d="M1223.97 20.4727L38.7165 713.151" stroke="#2A1B47" stroke-width="0.450102"/>
            <path d="M1262.94 42.9902L77.6892 735.668" stroke="#2A1B47" stroke-width="0.450102"/>
            <path d="M1301.91 65.5081L116.662 758.186" stroke="#2A1B47" stroke-width="0.450102"/>
            <path d="M1340.88 88.0256L155.635 780.704" stroke="#2A1B47" stroke-width="0.450102"/>
            <path d="M1379.86 110.543L194.607 803.221" stroke="#2A1B47" stroke-width="0.450102"/>
            <path d="M1418.83 133.061L233.58 825.739" stroke="#2A1B47" stroke-width="0.450102"/>
            <path d="M1457.8 155.578L272.553 848.257" stroke="#2A1B47" stroke-width="0.450102"/>
            <path d="M1496.78 178.096L311.526 870.774" stroke="#2A1B47" stroke-width="0.450102"/>
            <path d="M1535.75 200.614L350.499 893.292" stroke="#2A1B47" stroke-width="0.450102"/>
            <path d="M1574.72 223.131L389.471 915.81" stroke="#2A1B47" stroke-width="0.450102"/>
            <path d="M1613.69 245.649L428.444 938.327" stroke="#2A1B47" stroke-width="0.450102"/>
            <path d="M1652.67 268.167L467.417 960.845" stroke="#2A1B47" stroke-width="0.450102"/>
            <path d="M1691.64 290.684L506.389 983.362" stroke="#2A1B47" stroke-width="0.450102"/>
            <path d="M1730.61 313.201L545.362 1005.88" stroke="#2A1B47" stroke-width="0.450102"/>
            <path d="M1769.58 335.719L584.336 1028.4" stroke="#2A1B47" stroke-width="0.450102"/>
            <path d="M1808.56 358.237L623.307 1050.91" stroke="#2A1B47" stroke-width="0.450102"/>
            <path d="M1847.53 380.754L662.28 1073.43" stroke="#2A1B47" stroke-width="0.450102"/>
            <path d="M1886.5 403.272L701.254 1095.95" stroke="#2A1B47" stroke-width="0.450102"/>
            <path d="M1925.48 425.79L740.226 1118.47" stroke="#2A1B47" stroke-width="0.450102"/>
            <path d="M1964.45 448.307L779.199 1140.99" stroke="#2A1B47" stroke-width="0.450102"/>
            <path d="M2003.42 470.825L818.173 1163.5" stroke="#2A1B47" stroke-width="0.450102"/>
            <path d="M2042.39 493.343L857.144 1186.02" stroke="#2A1B47" stroke-width="0.450102"/>
            <path d="M2081.37 515.86L896.117 1208.54" stroke="#2A1B47" stroke-width="0.450102"/>
            <path d="M2120.34 538.378L935.091 1231.06" stroke="#2A1B47" stroke-width="0.450102"/>
            <path d="M2159.31 560.895L974.063 1253.57" stroke="#2A1B47" stroke-width="0.450102"/>
            <path d="M2198.29 583.413L1013.04 1276.09" stroke="#2A1B47" stroke-width="0.450102"/>
            <path d="M2237.26 605.93L1052.01 1298.61" stroke="#2A1B47" stroke-width="0.450102"/>
            <path d="M2276.23 628.448L1090.98 1321.13" stroke="#2A1B47" stroke-width="0.450102"/>
            <path d="M2315.2 650.965L1129.95 1343.64" stroke="#2A1B47" stroke-width="0.450102"/>
            <path d="M2354.18 673.483L1168.93 1366.16" stroke="#2A1B47" stroke-width="0.450102"/>
            <path d="M2393.15 696.001L1207.9 1388.68" stroke="#2A1B47" stroke-width="0.450102"/>
            <path d="M2413.68 707.863L1223.99 20.487" stroke="#2A1B47" stroke-width="0.450102"/>
            <path d="M2374.82 730.574L1185.13 43.1981" stroke="#2A1B47" stroke-width="0.450102"/>
            <path d="M2335.96 753.285L1146.27 65.9088" stroke="#2A1B47" stroke-width="0.450102"/>
            <path d="M2297.1 775.996L1107.41 88.6196" stroke="#2A1B47" stroke-width="0.450102"/>
            <path d="M2258.24 798.706L1068.55 111.33" stroke="#2A1B47" stroke-width="0.450102"/>
            <path d="M2219.38 821.417L1029.69 134.041" stroke="#2A1B47" stroke-width="0.450102"/>
            <path d="M2180.52 844.128L990.828 156.752" stroke="#2A1B47" stroke-width="0.450102"/>
            <path d="M2141.66 866.838L951.968 179.462" stroke="#2A1B47" stroke-width="0.450102"/>
            <path d="M2102.8 889.549L913.106 202.173" stroke="#2A1B47" stroke-width="0.450102"/>
            <path d="M2063.94 912.26L874.246 224.884" stroke="#2A1B47" stroke-width="0.450102"/>
            <path d="M2025.07 934.97L835.385 247.594" stroke="#2A1B47" stroke-width="0.450102"/>
            <path d="M1986.21 957.681L796.525 270.305" stroke="#2A1B47" stroke-width="0.450102"/>
            <path d="M1947.35 980.392L757.664 293.016" stroke="#2A1B47" stroke-width="0.450102"/>
            <path d="M1908.49 1003.1L718.805 315.727" stroke="#2A1B47" stroke-width="0.450102"/>
            <path d="M1869.63 1025.81L679.943 338.437" stroke="#2A1B47" stroke-width="0.450102"/>
            <path d="M1830.77 1048.52L641.082 361.148" stroke="#2A1B47" stroke-width="0.450102"/>
            <path d="M1791.91 1071.24L602.222 383.859" stroke="#2A1B47" stroke-width="0.450102"/>
            <path d="M1753.05 1093.94L563.36 406.568" stroke="#2A1B47" stroke-width="0.450102"/>
            <path d="M1714.19 1116.65L524.499 429.277" stroke="#2A1B47" stroke-width="0.450102"/>
            <path d="M1675.33 1139.36L485.638 451.986" stroke="#2A1B47" stroke-width="0.450102"/>
            <path d="M1636.47 1162.07L446.776 474.695" stroke="#2A1B47" stroke-width="0.450102"/>
            <path d="M1597.6 1184.78L407.915 497.404" stroke="#2A1B47" stroke-width="0.450102"/>
            <path d="M1558.74 1207.49L369.054 520.113" stroke="#2A1B47" stroke-width="0.450102"/>
            <path d="M1519.88 1230.2L330.193 542.822" stroke="#2A1B47" stroke-width="0.450102"/>
            <path d="M1481.02 1252.91L291.331 565.531" stroke="#2A1B47" stroke-width="0.450102"/>
            <path d="M1442.16 1275.62L252.471 588.24" stroke="#2A1B47" stroke-width="0.450102"/>
            <path d="M1403.3 1298.32L213.608 610.949" stroke="#2A1B47" stroke-width="0.450102"/>
            <path d="M1364.44 1321.03L174.747 633.658" stroke="#2A1B47" stroke-width="0.450102"/>
            <path d="M1325.58 1343.74L135.887 656.367" stroke="#2A1B47" stroke-width="0.450102"/>
            <path d="M1286.71 1366.45L97.0253 679.076" stroke="#2A1B47" stroke-width="0.450102"/>
            <path d="M1247.85 1389.16L58.163 701.785" stroke="#2A1B47" stroke-width="0.450102"/>

            <g class="anima">
                <path class="path-one" d="M1418.64 359.49L952.888 631.684L1186.67 766.76L1207.43 754.63" stroke="#3DF498" stroke-width="0.450102"/>
                <path class="path-two" d="M1204.41 731.84L1030.7 631.47L1380.24 427.189L1264.86 360.522" stroke="#3DF498" stroke-width="0.450102"/>
                <path class="path-three" d="M790.401 673.282L914.231 744.828L1069.68 653.984L1225.41 743.961" stroke="#3DF498" stroke-width="0.450102"/>
                <path class="path-four" d="M1225.39 744.132L1031.28 857.573L1188.15 948.212" stroke="#3DF498" stroke-width="0.450102"/>
                <path class="path-five" d="M1342.4 947.007L1147.99 834.683L1264.56 766.561L1238.58 751.549" stroke="#3DF498" stroke-width="0.450102"/>
                <path class="path-six" d="M757.916 609.341L836.191 654.567L1030.36 541.093L1225.22 653.681L1147.63 699.024L1223.55 742.885" stroke="#3DF498" stroke-width="0.450102"/>
                <path class="path-seven" d="M720.818 767.292L875.168 677.088L1070.03 789.675L1108.92 812.146L1216.32 749.38" stroke="#3DF498" stroke-width="0.450102"/>
                <path class="path-eigth" d="M1555.23 460.826L1419.66 540.055L1497.6 585.087L1225.64 744.029" stroke="#3DF498" stroke-width="0.450102"/>
                <path class="path-nine" d="M1795.68 546.751L1420.22 766.176L1381.25 743.664L1303.54 789.088L1227.27 745.021" stroke="#3DF498" stroke-width="0.450102"/>
                <path class="path-ten" d="M1651.06 809.312L1419.9 675.755L1303.35 743.866L1264.54 766.556L1227.27 745.022" stroke="#3DF498" stroke-width="0.450102"/>
                <path class="path-eleven" d="M1615.84 924.359L1498.76 856.71L1420.31 811.385L1381.46 834.107L1227.27 745.021" stroke="#3DF498" stroke-width="0.450102"/>

                <circle  class="circle-one" r="4"></circle>
                <circle  class="circle-two" r="4"></circle>
                <circle  class="circle-three" r="4"></circle>
                <circle  class="circle-four" r="4"></circle>
                <circle  class="circle-five" r="4"></circle>
                <circle  class="circle-six" r="4"></circle>
                <circle  class="circle-seven" r="4"></circle>
                <circle  class="circle-eigth" r="4"></circle>
                <circle  class="circle-nine" r="4"></circle>
                <circle  class="circle-ten" r="4"></circle>
                <circle  class="circle-eleven" r="4"></circle>

            </g>
            
            <path d="M466.84 712.111C477.571 705.839 494.995 705.796 505.757 712.014C516.519 718.232 516.544 728.357 505.813 734.628C495.082 740.9 477.658 740.943 466.896 734.725C456.134 728.507 456.109 718.382 466.84 712.111Z" fill="#2A1B47"/>
            <path d="M194.293 690.131C205.024 683.86 222.448 683.817 233.21 690.035C243.972 696.253 243.997 706.378 233.266 712.649C222.535 718.92 205.111 718.964 194.349 712.746C183.587 706.527 183.562 696.403 194.293 690.131Z" fill="#2A1B47"/>
            <path d="M909.127 1132.95C912.561 1130.95 918.137 1130.93 921.58 1132.92L948.082 1148.24C951.526 1150.23 951.534 1153.47 948.1 1155.47L921.675 1170.92C918.241 1172.92 912.665 1172.94 909.221 1170.95L882.72 1155.63C879.276 1153.64 879.268 1150.41 882.702 1148.4L909.127 1132.95Z" fill="#2A1B47"/>
            <path d="M362.852 546.347C366.286 544.34 371.861 544.326 375.305 546.316L401.806 561.628C405.25 563.617 405.258 566.857 401.824 568.864L375.399 584.307C371.965 586.314 366.39 586.328 362.946 584.338L336.444 569.026C333.001 567.037 332.993 563.797 336.426 561.79L362.852 546.347Z" fill="#2A1B47"/>
            <path d="M583.383 643.956C594.114 637.685 611.538 637.641 622.3 643.859C633.062 650.077 633.087 660.202 622.356 666.474C611.625 672.745 594.201 672.788 583.439 666.57C572.677 660.352 572.652 650.227 583.383 643.956Z" fill="#2A1B47"/>
            <path d="M1492.61 1018.44C1496.05 1016.44 1501.62 1016.42 1505.07 1018.41L1531.57 1033.72C1535.01 1035.71 1535.02 1038.95 1531.59 1040.96L1505.16 1056.4C1501.73 1058.41 1496.15 1058.43 1492.71 1056.44L1466.21 1041.12C1462.76 1039.13 1462.75 1035.89 1466.19 1033.89L1492.61 1018.44Z" fill="#2A1B47"/>
            <path d="M1245.9 1026.74C1256.63 1020.47 1274.06 1020.43 1284.82 1026.65C1295.58 1032.87 1295.61 1042.99 1284.87 1049.26C1274.14 1055.53 1256.72 1055.58 1245.96 1049.36C1235.2 1043.14 1235.17 1033.02 1245.9 1026.74Z" fill="#2A1B47"/>
            <path d="M1181.84 929.205C1185.28 927.198 1190.85 927.184 1194.3 929.174L1220.8 944.486C1224.24 946.475 1224.25 949.715 1220.81 951.722L1194.39 967.166C1190.96 969.172 1185.38 969.186 1181.94 967.196L1155.43 951.884C1151.99 949.895 1151.98 946.655 1155.42 944.648L1181.84 929.205Z" fill="#40227A"/>
            <path d="M973.43 1004.81C984.161 998.534 1001.58 998.491 1012.35 1004.71C1023.11 1010.93 1023.13 1021.05 1012.4 1027.32C1001.67 1033.59 984.248 1033.64 973.486 1027.42C962.724 1021.2 962.699 1011.08 973.43 1004.81Z" fill="#2A1B47"/>
            <path d="M753.352 1088.11C756.786 1086.11 762.361 1086.09 765.805 1088.08L792.306 1103.39C795.75 1105.38 795.758 1108.62 792.324 1110.63L765.899 1126.07C762.465 1128.08 756.89 1128.09 753.446 1126.1L726.944 1110.79C723.501 1108.8 723.493 1105.56 726.926 1103.56L753.352 1088.11Z" fill="#2A1B47"/>
            <path d="M427.717 644.342C438.448 638.071 455.872 638.028 466.634 644.246C477.396 650.464 477.421 660.588 466.69 666.86C455.959 673.131 438.535 673.174 427.773 666.956C417.011 660.738 416.986 650.614 427.717 644.342Z" fill="#2A1B47"/>
            <path d="M285.242 636.996C288.676 634.989 294.252 634.975 297.696 636.965L324.197 652.277C327.641 654.267 327.649 657.507 324.215 659.513L297.79 674.957C294.356 676.964 288.78 676.977 285.337 674.988L258.835 659.676C255.391 657.686 255.383 654.446 258.817 652.439L285.242 636.996Z" fill="#2A1B47"/>
            <path d="M1336.95 1018.83C1340.38 1016.82 1345.95 1016.81 1349.4 1018.8L1375.9 1034.11C1379.34 1036.1 1379.35 1039.34 1375.92 1041.35L1349.49 1056.79C1346.06 1058.8 1340.48 1058.81 1337.04 1056.82L1310.54 1041.51C1307.09 1039.52 1307.09 1036.28 1310.52 1034.27L1336.95 1018.83Z" fill="#2A1B47"/>
            <path d="M350.219 780.221C360.95 773.95 378.374 773.907 389.136 780.125C399.898 786.343 399.923 796.467 389.192 802.739C378.461 809.01 361.037 809.053 350.275 802.835C339.513 796.617 339.488 786.493 350.219 780.221Z" fill="#2A1B47"/>
            <path d="M869.611 884.303C873.045 882.296 878.621 882.282 882.065 884.272L908.566 899.584C912.01 901.574 912.018 904.814 908.584 906.821L882.159 922.264C878.725 924.271 873.15 924.285 869.706 922.295L843.204 906.983C839.76 904.993 839.752 901.753 843.186 899.746L869.611 884.303Z" fill="#2A1B47"/>
            <path d="M894.94 733.64C905.671 727.369 923.094 727.326 933.857 733.544C944.619 739.762 944.644 749.886 933.913 756.158C923.182 762.429 905.758 762.472 894.996 756.254C884.234 750.036 884.209 739.912 894.94 733.64Z" fill="#2A1B47"/>
            <path d="M480.561 930.5C483.995 928.493 489.57 928.479 493.014 930.469L519.515 945.781C522.959 947.771 522.967 951.011 519.533 953.017L493.108 968.461C489.674 970.468 484.099 970.481 480.655 968.492L454.153 953.18C450.71 951.19 450.702 947.95 454.135 945.943L480.561 930.5Z" fill="#2A1B47"/>
            <path d="M1142.64 1132.38C1146.08 1130.38 1151.65 1130.36 1155.1 1132.35L1181.6 1147.66C1185.04 1149.65 1185.05 1152.89 1181.62 1154.9L1155.19 1170.34C1151.76 1172.35 1146.18 1172.36 1142.74 1170.38L1116.24 1155.06C1112.79 1153.07 1112.78 1149.83 1116.22 1147.83L1142.64 1132.38Z" fill="#2A1B47"/>
            <path d="M908.363 816.367C911.797 814.36 917.373 814.346 920.817 816.336L947.318 831.648C950.762 833.637 950.77 836.877 947.336 838.884L920.911 854.327C917.477 856.334 911.901 856.348 908.458 854.358L881.956 839.046C878.512 837.057 878.504 833.817 881.938 831.81L908.363 816.367Z" fill="#2A1B47"/>
            <path d="M636.227 930.114C639.661 928.107 645.236 928.093 648.68 930.083L675.181 945.395C678.625 947.385 678.633 950.625 675.199 952.631L648.774 968.075C645.34 970.082 639.765 970.095 636.321 968.106L609.819 952.794C606.376 950.804 606.368 947.564 609.801 945.557L636.227 930.114Z" fill="#2A1B47"/>
            <path d="M518.68 591.205C522.114 589.198 527.689 589.185 531.133 591.174L557.635 606.486C561.078 608.476 561.086 611.716 557.653 613.723L531.227 629.166C527.793 631.173 522.218 631.187 518.774 629.197L492.273 613.885C488.829 611.895 488.821 608.655 492.255 606.649L518.68 591.205Z" fill="#40227A"/>
            <path d="M1518.48 1093.91C1529.22 1087.64 1546.64 1087.6 1557.4 1093.81C1568.16 1100.03 1568.19 1110.16 1557.46 1116.43C1546.73 1122.7 1529.3 1122.74 1518.54 1116.53C1507.78 1110.31 1507.75 1100.18 1518.48 1093.91Z" fill="#2A1B47"/>
            <path d="M1181.94 1290.58C1185.37 1288.57 1190.95 1288.56 1194.39 1290.55L1220.89 1305.86C1224.34 1307.85 1224.34 1311.09 1220.91 1313.1L1194.49 1328.54C1191.05 1330.55 1185.48 1330.56 1182.03 1328.57L1155.53 1313.26C1152.09 1311.27 1152.08 1308.03 1155.51 1306.02L1181.94 1290.58Z" fill="#2A1B47"/>
            <path d="M1415.34 1244.78C1418.78 1242.77 1424.35 1242.76 1427.8 1244.75L1454.3 1260.06C1457.74 1262.05 1457.75 1265.29 1454.31 1267.3L1427.89 1282.74C1424.46 1284.75 1418.88 1284.76 1415.44 1282.77L1388.93 1267.46C1385.49 1265.47 1385.48 1262.23 1388.92 1260.22L1415.34 1244.78Z" fill="#2A1B47"/>
            <path d="M1181.27 1019.21C1184.7 1017.2 1190.28 1017.19 1193.72 1019.18L1220.22 1034.49C1223.67 1036.48 1223.67 1039.72 1220.24 1041.72L1193.82 1057.17C1190.38 1059.17 1184.81 1059.19 1181.36 1057.2L1154.86 1041.89C1151.42 1039.9 1151.41 1036.66 1154.84 1034.65L1181.27 1019.21Z" fill="#40227A"/>
            <path d="M713.625 749.016C717.059 747.009 722.635 746.995 726.078 748.985L752.58 764.297C756.024 766.287 756.032 769.527 752.598 771.534L726.173 786.977C722.739 788.984 717.163 788.998 713.719 787.008L687.218 771.696C683.774 769.706 683.766 766.466 687.2 764.459L713.625 749.016Z" fill="#2A1B47"/>
            <path d="M1288.34 1186.76C1299.08 1180.49 1316.5 1180.44 1327.26 1186.66C1338.02 1192.88 1338.05 1203 1327.32 1209.28C1316.59 1215.55 1299.16 1215.59 1288.4 1209.37C1277.64 1203.15 1277.61 1193.03 1288.34 1186.76Z" fill="#2A1B47"/>
            <path d="M1298.18 1086.76C1301.62 1084.75 1307.19 1084.74 1310.64 1086.73L1337.14 1102.04C1340.58 1104.03 1340.59 1107.27 1337.15 1109.28L1310.73 1124.72C1307.3 1126.73 1301.72 1126.74 1298.28 1124.75L1271.77 1109.44C1268.33 1107.45 1268.32 1104.21 1271.76 1102.2L1298.18 1086.76Z" fill="#2A1B47"/>
            <path d="M1065.02 1223.02C1068.46 1221.02 1074.03 1221 1077.47 1222.99L1103.98 1238.3C1107.42 1240.29 1107.43 1243.53 1103.99 1245.54L1077.57 1260.98C1074.14 1262.99 1068.56 1263.01 1065.12 1261.02L1038.61 1245.7C1035.17 1243.71 1035.16 1240.47 1038.6 1238.47L1065.02 1223.02Z" fill="#2A1B47"/>
            <path d="M986.754 1042.31C990.188 1040.31 995.763 1040.29 999.207 1042.28L1025.71 1057.59C1029.15 1059.58 1029.16 1062.82 1025.73 1064.83L999.302 1080.27C995.868 1082.28 990.292 1082.29 986.848 1080.3L960.347 1064.99C956.903 1063 956.895 1059.76 960.329 1057.76L986.754 1042.31Z" fill="#2A1B47"/>
            <path d="M519.139 772.111C522.573 770.105 528.148 770.091 531.592 772.08L558.094 787.392C561.537 789.382 561.545 792.622 558.112 794.629L531.686 810.072C528.252 812.079 522.677 812.093 519.233 810.103L492.732 794.791C489.288 792.801 489.28 789.562 492.714 787.555L519.139 772.111Z" fill="#40227A"/>
            <path d="M817.856 1050.41C828.587 1044.14 846.01 1044.1 856.773 1050.32C867.535 1056.53 867.56 1066.66 856.829 1072.93C846.098 1079.2 828.674 1079.25 817.912 1073.03C807.15 1066.81 807.125 1056.68 817.856 1050.41Z" fill="#2A1B47"/>
            <path d="M934.343 937.059C945.074 930.788 962.498 930.745 973.26 936.963C984.022 943.181 984.047 953.306 973.316 959.577C962.585 965.848 945.161 965.892 934.399 959.673C923.637 953.455 923.612 943.331 934.343 937.059Z" fill="#2A1B47"/>
            <path d="M701.051 1028.09C711.782 1021.82 729.206 1021.77 739.968 1027.99C750.73 1034.21 750.755 1044.33 740.024 1050.61C729.293 1056.88 711.869 1056.92 701.107 1050.7C690.345 1044.48 690.32 1034.36 701.051 1028.09Z" fill="#2A1B47"/>
            <path d="M518.537 545.971C521.971 543.964 527.547 543.95 530.991 545.94L557.492 561.252C560.936 563.242 560.944 566.482 557.51 568.488L531.085 583.932C527.651 585.939 522.075 585.952 518.631 583.963L492.13 568.651C488.686 566.661 488.678 563.421 492.112 561.414L518.537 545.971Z" fill="#2A1B47"/>
            <path d="M168.777 750.359C172.211 748.352 177.787 748.338 181.231 750.328L207.732 765.64C211.176 767.63 211.184 770.87 207.75 772.876L181.325 788.32C177.891 790.327 172.316 790.34 168.872 788.351L142.37 773.039C138.926 771.049 138.918 767.809 142.352 765.802L168.777 750.359Z" fill="#2A1B47"/>
            <path d="M1415.01 1109.09C1418.44 1107.09 1424.02 1107.07 1427.46 1109.06L1453.96 1124.37C1457.4 1126.36 1457.41 1129.6 1453.98 1131.61L1427.55 1147.05C1424.12 1149.06 1418.54 1149.07 1415.1 1147.08L1388.6 1131.77C1385.15 1129.78 1385.15 1126.54 1388.58 1124.54L1415.01 1109.09Z" fill="#2A1B47"/>
            <path d="M1336.74 928.384C1340.18 926.377 1345.75 926.363 1349.2 928.353L1375.7 943.665C1379.14 945.655 1379.15 948.895 1375.72 950.902L1349.29 966.345C1345.86 968.352 1340.28 968.366 1336.84 966.376L1310.34 951.064C1306.89 949.074 1306.88 945.834 1310.32 943.827L1336.74 928.384Z" fill="#2A1B47"/>
            <path d="M1012.72 1163C1023.45 1156.73 1040.88 1156.69 1051.64 1162.9C1062.4 1169.12 1062.42 1179.25 1051.69 1185.52C1040.96 1191.79 1023.54 1191.83 1012.78 1185.61C1002.02 1179.4 1001.99 1169.27 1012.72 1163Z" fill="#2A1B47"/>
            <path d="M596.82 726.691C600.254 724.684 605.83 724.67 609.274 726.66L635.775 741.972C639.219 743.961 639.227 747.201 635.793 749.208L609.368 764.651C605.934 766.658 600.359 766.672 596.915 764.682L570.413 749.37C566.969 747.381 566.961 744.141 570.395 742.134L596.82 726.691Z" fill="#2A1B47"/>
            <path d="M830.213 680.88C833.647 678.873 833.639 675.633 830.195 673.643L803.694 658.331C800.25 656.341 794.674 656.355 791.24 658.362L764.815 673.805C761.381 675.812 761.389 679.052 764.833 681.042L791.334 696.354C794.778 698.344 800.354 698.33 803.788 696.323L830.213 680.88Z" fill="#2A1B47"/>
            <path d="M441.59 907.981C445.024 905.974 445.016 902.734 441.572 900.744L415.07 885.432C411.627 883.442 406.051 883.456 402.617 885.463L376.192 900.906C372.758 902.913 372.766 906.153 376.21 908.143L402.711 923.455C406.155 925.445 411.731 925.431 415.165 923.424L441.59 907.981Z" fill="#2A1B47"/>
            <path d="M1207.49 1230.37C1218.22 1224.1 1218.19 1213.97 1207.43 1207.75C1196.67 1201.54 1179.25 1201.58 1168.52 1207.85C1157.78 1214.12 1157.81 1224.25 1168.57 1230.47C1179.33 1236.68 1196.76 1236.64 1207.49 1230.37Z" fill="#2A1B47"/>
            <path d="M830.861 952.242C834.295 950.235 834.287 946.995 830.843 945.005L804.342 929.693C800.898 927.703 795.323 927.717 791.889 929.724L765.463 945.167C762.03 947.174 762.038 950.414 765.481 952.404L791.983 967.716C795.427 969.706 801.002 969.692 804.436 967.685L830.861 952.242Z" fill="#2A1B47"/>
            <path d="M1011.95 846.41C1022.68 840.138 1022.66 830.014 1011.9 823.796C1001.13 817.577 983.71 817.621 972.979 823.892C962.248 830.163 962.273 840.288 973.035 846.506C983.797 852.724 1001.22 852.681 1011.95 846.41Z" fill="#2A1B47"/>
            <path d="M675.404 1043.08C678.838 1041.07 678.83 1037.83 675.386 1035.84L648.885 1020.53C645.441 1018.54 639.866 1018.55 636.432 1020.56L610.006 1036C606.572 1038.01 606.581 1041.25 610.024 1043.24L636.526 1058.55C639.97 1060.54 645.545 1060.53 648.979 1058.52L675.404 1043.08Z" fill="#2A1B47"/>
            <path d="M661.897 915.112C672.628 908.84 672.603 898.715 661.841 892.497C651.079 886.279 633.655 886.323 622.924 892.594C612.193 898.865 612.218 908.99 622.98 915.208C633.742 921.426 651.166 921.383 661.897 915.112Z" fill="#2A1B47"/>
            <path d="M791.695 839.274C795.129 837.267 795.121 834.027 791.677 832.037L765.176 816.725C761.732 814.735 756.157 814.749 752.723 816.756L726.297 832.199C722.864 834.206 722.872 837.446 726.315 839.436L752.817 854.748C756.261 856.738 761.836 856.724 765.27 854.717L791.695 839.274Z" fill="#40227A"/>
            <path d="M466.221 485.936C476.952 479.665 494.376 479.622 505.138 485.84C515.9 492.058 515.925 502.182 505.194 508.454C494.463 514.725 477.039 514.768 466.277 508.55C455.515 502.332 455.49 492.208 466.221 485.936Z" fill="#2A1B47"/>
            <path d="M129.672 682.603C133.106 680.596 138.682 680.582 142.126 682.572L168.627 697.884C172.071 699.874 172.079 703.114 168.645 705.121L142.22 720.564C138.786 722.571 133.211 722.585 129.767 720.595L103.265 705.283C99.8214 703.293 99.8133 700.053 103.247 698.046L129.672 682.603Z" fill="#2A1B47"/>
            <path d="M1256.78 69.2387C1260.21 67.2319 1265.79 67.218 1269.23 69.2078L1295.73 84.5198C1299.18 86.5095 1299.18 89.7495 1295.75 91.7563L1269.33 107.2C1265.89 109.206 1260.32 109.22 1256.87 107.23L1230.37 91.9185C1226.93 89.9287 1226.92 86.6888 1230.35 84.682L1256.78 69.2387Z" fill="#2A1B47"/>
            <path d="M893.805 281.349C904.536 275.078 921.96 275.035 932.722 281.253C943.484 287.471 943.509 297.595 932.778 303.867C922.047 310.138 904.623 310.181 893.861 303.963C883.099 297.745 883.074 287.621 893.805 281.349Z" fill="#2A1B47"/>
            <path d="M1945.19 527.506C1955.92 521.234 1973.34 521.191 1984.1 527.409C1994.87 533.627 1994.89 543.752 1984.16 550.023C1973.43 556.294 1956.01 556.338 1945.24 550.12C1934.48 543.902 1934.46 533.777 1945.19 527.506Z" fill="#2A1B47"/>
            <path d="M1608.64 724.173C1612.07 722.166 1617.65 722.152 1621.09 724.142L1647.59 739.454C1651.04 741.444 1651.05 744.684 1647.61 746.69L1621.19 762.134C1617.75 764.141 1612.18 764.154 1608.73 762.165L1582.23 746.853C1578.79 744.863 1578.78 741.623 1582.21 739.616L1608.64 724.173Z" fill="#2A1B47"/>
            <path d="M1062.36 137.564C1065.8 135.557 1071.37 135.543 1074.82 137.533L1101.32 152.845C1104.76 154.835 1104.77 158.075 1101.34 160.081L1074.91 175.525C1071.48 177.532 1065.9 177.545 1062.46 175.556L1035.96 160.244C1032.51 158.254 1032.5 155.014 1035.94 153.007L1062.36 137.564Z" fill="#2A1B47"/>
            <path d="M790.58 387.007C794.014 385 799.59 384.986 803.033 386.976L829.535 402.288C832.979 404.278 832.987 407.518 829.553 409.524L803.128 424.968C799.694 426.974 794.118 426.988 790.674 424.999L764.173 409.687C760.729 407.697 760.721 404.457 764.155 402.45L790.58 387.007Z" fill="#40227A"/>
            <path d="M1282.89 235.173C1293.62 228.902 1311.05 228.859 1321.81 235.077C1332.57 241.295 1332.6 251.42 1321.87 257.691C1311.13 263.962 1293.71 264.006 1282.95 257.788C1272.19 251.57 1272.16 241.445 1282.89 235.173Z" fill="#2A1B47"/>
            <path d="M933.135 439.562C943.866 433.291 961.29 433.247 972.052 439.465C982.814 445.683 982.839 455.808 972.108 462.08C961.377 468.351 943.953 468.394 933.191 462.176C922.429 455.958 922.404 445.833 933.135 439.562Z" fill="#2A1B47"/>
            <path d="M2192.13 609.661C2195.56 607.654 2201.13 607.641 2204.58 609.63L2231.08 624.942C2234.52 626.932 2234.53 630.172 2231.1 632.179L2204.67 647.622C2201.24 649.629 2195.66 649.643 2192.22 647.653L2165.72 632.341C2162.27 630.351 2162.27 627.111 2165.7 625.105L2192.13 609.661Z" fill="#2A1B47"/>
            <path d="M1842.71 949.742C1846.15 947.735 1851.72 947.721 1855.17 949.711L1881.67 965.023C1885.11 967.013 1885.12 970.253 1881.69 972.259L1855.26 987.703C1851.83 989.709 1846.25 989.723 1842.81 987.734L1816.31 972.422C1812.86 970.432 1812.86 967.192 1816.29 965.185L1842.71 949.742Z" fill="#2A1B47"/>
            <path d="M1958.62 610.24C1962.06 608.233 1967.63 608.219 1971.08 610.209L1997.58 625.521C2001.02 627.511 2001.03 630.751 1997.6 632.758L1971.17 648.201C1967.74 650.208 1962.16 650.221 1958.72 648.232L1932.22 632.92C1928.77 630.93 1928.76 627.69 1932.2 625.683L1958.62 610.24Z" fill="#2A1B47"/>
            <path d="M1647.74 791.926C1651.17 789.919 1656.75 789.905 1660.19 791.895L1686.7 807.207C1690.14 809.197 1690.15 812.437 1686.71 814.444L1660.29 829.887C1656.85 831.894 1651.28 831.908 1647.83 829.918L1621.33 814.606C1617.89 812.616 1617.88 809.376 1621.32 807.369L1647.74 791.926Z" fill="#2A1B47"/>
            <path d="M1789.53 527.89C1800.26 521.619 1817.68 521.575 1828.44 527.793C1839.2 534.012 1839.23 544.136 1828.5 550.408C1817.77 556.679 1800.34 556.722 1789.58 550.504C1778.82 544.286 1778.79 534.161 1789.53 527.89Z" fill="#2A1B47"/>
            <path d="M1491.95 747.076C1495.38 745.069 1500.96 745.055 1504.4 747.045L1530.9 762.357C1534.35 764.347 1534.35 767.587 1530.92 769.594L1504.49 785.037C1501.06 787.044 1495.49 787.058 1492.04 785.068L1465.54 769.756C1462.1 767.766 1462.09 764.526 1465.52 762.519L1491.95 747.076Z" fill="#2A1B47"/>
            <path d="M1841.8 587.908C1845.24 585.901 1850.81 585.887 1854.26 587.877L1880.76 603.189C1884.2 605.178 1884.21 608.418 1880.78 610.425L1854.35 625.869C1850.92 627.875 1845.34 627.889 1841.9 625.899L1815.4 610.587C1811.95 608.598 1811.94 605.358 1815.38 603.351L1841.8 587.908Z" fill="#2A1B47"/>
            <path d="M1802.62 474.941C1806.06 472.934 1811.63 472.92 1815.07 474.91L1841.58 490.222C1845.02 492.212 1845.03 495.452 1841.59 497.459L1815.17 512.902C1811.73 514.909 1806.16 514.923 1802.72 512.933L1776.21 497.621C1772.77 495.631 1772.76 492.391 1776.2 490.384L1802.62 474.941Z" fill="#2A1B47"/>
            <path d="M1127.23 235.559C1137.96 229.288 1155.38 229.245 1166.14 235.463C1176.91 241.681 1176.93 251.806 1166.2 258.077C1155.47 264.348 1138.05 264.392 1127.28 258.174C1116.52 251.956 1116.5 241.831 1127.23 235.559Z" fill="#2A1B47"/>
            <path d="M673.754 364.672C677.188 362.665 682.763 362.651 686.207 364.641L712.709 379.953C716.153 381.943 716.161 385.183 712.727 387.19L686.302 402.633C682.868 404.64 677.292 404.654 673.848 402.664L647.347 387.352C643.903 385.362 643.895 382.122 647.329 380.115L673.754 364.672Z" fill="#2A1B47"/>
            <path d="M984.754 228.214C988.188 226.207 993.763 226.193 997.207 228.183L1023.71 243.495C1027.15 245.485 1027.16 248.725 1023.73 250.731L997.302 266.175C993.868 268.182 988.292 268.195 984.848 266.206L958.347 250.894C954.903 248.904 954.895 245.664 958.329 243.657L984.754 228.214Z" fill="#2A1B47"/>
            <path d="M634.992 432.603C638.426 430.596 644.002 430.582 647.446 432.572L673.947 447.884C677.391 449.874 677.399 453.113 673.965 455.12L647.54 470.564C644.106 472.57 638.53 472.584 635.087 470.594L608.585 455.283C605.141 453.293 605.133 450.053 608.567 448.046L634.992 432.603Z" fill="#2A1B47"/>
            <path d="M2023.24 617.769C2033.98 611.498 2051.4 611.455 2062.16 617.673C2072.92 623.891 2072.95 634.016 2062.22 640.287C2051.49 646.558 2034.06 646.602 2023.3 640.383C2012.54 634.165 2012.51 624.041 2023.24 617.769Z" fill="#2A1B47"/>
            <path d="M1608.33 905.523C1611.76 903.517 1617.34 903.503 1620.78 905.493L1647.28 920.805C1650.73 922.794 1650.74 926.034 1647.3 928.041L1620.88 943.484C1617.44 945.491 1611.87 945.505 1608.42 943.515L1581.92 928.203C1578.48 926.214 1578.47 922.974 1581.9 920.967L1608.33 905.523Z" fill="#40227A"/>
            <path d="M1490.63 204.355C1494.07 202.348 1499.64 202.334 1503.09 204.324L1529.59 219.636C1533.03 221.626 1533.04 224.865 1529.61 226.872L1503.18 242.316C1499.75 244.322 1494.17 244.336 1490.73 242.346L1464.23 227.034C1460.78 225.045 1460.78 221.805 1464.21 219.798L1490.63 204.355Z" fill="#2A1B47"/>
            <path d="M1049.73 371.438C1060.46 365.167 1077.89 365.124 1088.65 371.342C1099.41 377.56 1099.43 387.684 1088.7 393.956C1077.97 400.227 1060.55 400.27 1049.79 394.052C1039.02 387.834 1039 377.71 1049.73 371.438Z" fill="#2A1B47"/>
            <path d="M1516.62 325.051C1527.35 318.779 1544.77 318.736 1555.54 324.954C1566.3 331.172 1566.32 341.297 1555.59 347.568C1544.86 353.84 1527.44 353.883 1516.68 347.665C1505.91 341.447 1505.89 331.322 1516.62 325.051Z" fill="#40227A"/>
            <path d="M1842.15 723.601C1845.59 721.594 1851.16 721.58 1854.61 723.57L1881.11 738.882C1884.55 740.872 1884.56 744.112 1881.13 746.119L1854.7 761.562C1851.27 763.569 1845.69 763.583 1842.25 761.593L1815.75 746.281C1812.3 744.291 1812.3 741.051 1815.73 739.044L1842.15 723.601Z" fill="#2A1B47"/>
            <path d="M1570.34 973.023C1573.78 971.016 1579.35 971.002 1582.8 972.992L1609.3 988.304C1612.74 990.294 1612.75 993.534 1609.31 995.541L1582.89 1010.98C1579.46 1012.99 1573.88 1013 1570.44 1011.01L1543.93 995.703C1540.49 993.713 1540.48 990.473 1543.92 988.466L1570.34 973.023Z" fill="#2A1B47"/>
            <path d="M1724.79 475.135C1728.22 473.128 1733.8 473.114 1737.24 475.104L1763.74 490.416C1767.19 492.406 1767.19 495.646 1763.76 497.653L1737.33 513.096C1733.9 515.103 1728.33 515.117 1724.88 513.127L1698.38 497.815C1694.94 495.825 1694.93 492.585 1698.36 490.578L1724.79 475.135Z" fill="#2A1B47"/>
            <path d="M1685.5 316.943C1688.93 314.936 1694.51 314.922 1697.95 316.912L1724.45 332.224C1727.9 334.214 1727.9 337.454 1724.47 339.46L1698.05 354.904C1694.61 356.911 1689.04 356.924 1685.59 354.935L1659.09 339.623C1655.65 337.633 1655.64 334.393 1659.07 332.386L1685.5 316.943Z" fill="#2A1B47"/>
            <path d="M1335.74 521.331C1339.17 519.325 1344.75 519.311 1348.19 521.301L1374.69 536.613C1378.14 538.602 1378.14 541.842 1374.71 543.849L1348.28 559.292C1344.85 561.299 1339.27 561.313 1335.83 559.323L1309.33 544.011C1305.89 542.022 1305.88 538.782 1309.31 536.775L1335.74 521.331Z" fill="#2A1B47"/>
            <path d="M1140.2 137.371C1143.63 135.364 1149.2 135.35 1152.65 137.34L1179.15 152.652C1182.59 154.642 1182.6 157.882 1179.17 159.888L1152.74 175.332C1149.31 177.339 1143.73 177.352 1140.29 175.363L1113.79 160.051C1110.34 158.061 1110.34 154.821 1113.77 152.814L1140.2 137.371Z" fill="#2A1B47"/>
            <path d="M777.223 349.481C787.954 343.21 805.378 343.167 816.14 349.385C826.902 355.603 826.927 365.728 816.196 371.999C805.465 378.27 788.041 378.314 777.279 372.095C766.517 365.877 766.492 355.753 777.223 349.481Z" fill="#2A1B47"/>
            <path d="M2231.21 677.407C2234.64 675.4 2240.22 675.387 2243.66 677.376L2270.16 692.688C2273.61 694.678 2273.62 697.918 2270.18 699.925L2243.76 715.368C2240.32 717.375 2234.75 717.389 2231.3 715.399L2204.8 700.087C2201.36 698.097 2201.35 694.857 2204.78 692.851L2231.21 677.407Z" fill="#2A1B47"/>
            <path d="M1881.45 881.796C1884.88 879.789 1890.46 879.775 1893.9 881.765L1920.4 897.077C1923.85 899.067 1923.86 902.306 1920.42 904.313L1894 919.757C1890.56 921.763 1884.99 921.777 1881.54 919.787L1855.04 904.476C1851.6 902.486 1851.59 899.246 1855.02 897.239L1881.45 881.796Z" fill="#2A1B47"/>
            <path d="M1413.03 295.005C1416.46 292.998 1422.03 292.984 1425.48 294.974L1451.98 310.286C1455.42 312.275 1455.43 315.515 1452 317.522L1425.57 332.965C1422.14 334.972 1416.56 334.986 1413.12 332.996L1386.62 317.684C1383.17 315.695 1383.17 312.455 1386.6 310.448L1413.03 295.005Z" fill="#2A1B47"/>
            <path d="M2114.85 835.995C2118.29 833.989 2123.86 833.975 2127.3 835.965L2153.81 851.276C2157.25 853.266 2157.26 856.506 2153.82 858.513L2127.4 873.956C2123.97 875.963 2118.39 875.977 2114.95 873.987L2088.44 858.675C2085 856.685 2084.99 853.446 2088.43 851.439L2114.85 835.995Z" fill="#2A1B47"/>
            <path d="M1765.09 1040.38C1768.52 1038.38 1774.1 1038.36 1777.54 1040.35L1804.04 1055.66C1807.49 1057.65 1807.5 1060.89 1804.06 1062.9L1777.64 1078.34C1774.2 1080.35 1768.63 1080.37 1765.18 1078.38L1738.68 1063.06C1735.24 1061.07 1735.23 1057.83 1738.66 1055.83L1765.09 1040.38Z" fill="#2A1B47"/>
            <path d="M2023.47 708.225C2034.2 701.954 2051.62 701.91 2062.39 708.128C2073.15 714.346 2073.17 724.471 2062.44 730.743C2051.71 737.014 2034.29 737.057 2023.53 730.839C2012.76 724.621 2012.74 714.496 2023.47 708.225Z" fill="#2A1B47"/>
            <path d="M1686.92 904.892C1690.36 902.885 1695.93 902.871 1699.38 904.861L1725.88 920.173C1729.32 922.163 1729.33 925.403 1725.89 927.41L1699.47 942.853C1696.04 944.86 1690.46 944.874 1687.02 942.884L1660.51 927.572C1657.07 925.582 1657.06 922.342 1660.5 920.335L1686.92 904.892Z" fill="#2A1B47"/>
            <path d="M1335.53 430.882C1338.97 428.875 1344.54 428.861 1347.98 430.851L1374.49 446.163C1377.93 448.153 1377.94 451.393 1374.5 453.399L1348.08 468.843C1344.64 470.849 1339.07 470.863 1335.63 468.874L1309.12 453.562C1305.68 451.572 1305.67 448.332 1309.11 446.325L1335.53 430.882Z" fill="#2A1B47"/>
            <path d="M1919.99 723.408C1923.42 721.401 1929 721.387 1932.44 723.377L1958.94 738.689C1962.39 740.679 1962.39 743.919 1958.96 745.926L1932.53 761.369C1929.1 763.376 1923.52 763.39 1920.08 761.4L1893.58 746.088C1890.14 744.098 1890.13 740.858 1893.56 738.851L1919.99 723.408Z" fill="#2A1B47"/>
            <path d="M1439.36 868.415C1450.09 862.143 1467.51 862.1 1478.28 868.318C1489.04 874.536 1489.06 884.661 1478.33 890.932C1467.6 897.204 1450.18 897.247 1439.41 891.029C1428.65 884.811 1428.63 874.686 1439.36 868.415Z" fill="#2A1B47"/>
            <path d="M2036.57 655.276C2040 653.269 2045.58 653.255 2049.02 655.245L2075.52 670.557C2078.97 672.547 2078.98 675.787 2075.54 677.793L2049.12 693.237C2045.68 695.244 2040.11 695.257 2036.66 693.268L2010.16 677.956C2006.72 675.966 2006.71 672.726 2010.14 670.719L2036.57 655.276Z" fill="#2A1B47"/>
            <path d="M1751.32 821.963C1762.05 815.692 1779.48 815.649 1790.24 821.867C1801 828.085 1801.02 838.21 1790.29 844.481C1779.56 850.752 1762.14 850.796 1751.38 844.578C1740.61 838.359 1740.59 828.235 1751.32 821.963Z" fill="#2A1B47"/>
            <path d="M1686.27 633.53C1689.7 631.523 1695.28 631.509 1698.72 633.499L1725.22 648.811C1728.66 650.801 1728.67 654.041 1725.24 656.047L1698.81 671.491C1695.38 673.498 1689.8 673.511 1686.36 671.522L1659.86 656.21C1656.41 654.22 1656.41 650.98 1659.84 648.973L1686.27 633.53Z" fill="#2A1B47"/>
            <path d="M1336.5 837.919C1339.94 835.912 1345.51 835.898 1348.96 837.888L1375.46 853.2C1378.9 855.189 1378.91 858.429 1375.47 860.436L1349.05 875.879C1345.62 877.886 1340.04 877.9 1336.6 875.91L1310.09 860.598C1306.65 858.609 1306.64 855.369 1310.08 853.362L1336.5 837.919Z" fill="#2A1B47"/>
            <path d="M1412.95 340.123C1416.38 338.116 1421.96 338.103 1425.4 340.092L1451.9 355.404C1455.35 357.394 1455.35 360.634 1451.92 362.641L1425.49 378.084C1422.06 380.091 1416.49 380.105 1413.04 378.115L1386.54 362.803C1383.1 360.813 1383.09 357.573 1386.52 355.567L1412.95 340.123Z" fill="#40227A"/>
            <path d="M1166.54 393.761C1177.27 387.49 1194.69 387.447 1205.46 393.665C1216.22 399.883 1216.24 410.008 1205.51 416.279C1194.78 422.55 1177.36 422.594 1166.6 416.376C1155.83 410.157 1155.81 400.033 1166.54 393.761Z" fill="#2A1B47"/>
            <path d="M621.993 530.84C632.724 524.569 650.147 524.526 660.909 530.744C671.671 536.962 671.696 547.087 660.965 553.358C650.234 559.629 632.811 559.673 622.049 553.455C611.287 547.237 611.262 537.112 621.993 530.84Z" fill="#2A1B47"/>
            <path d="M1880.34 429.52C1883.78 427.514 1889.35 427.5 1892.8 429.49L1919.3 444.802C1922.74 446.791 1922.75 450.031 1919.31 452.038L1892.89 467.481C1889.46 469.488 1883.88 469.502 1880.44 467.512L1853.93 452.2C1850.49 450.21 1850.48 446.971 1853.92 444.964L1880.34 429.52Z" fill="#2A1B47"/>
            <path d="M1530.58 633.909C1534.02 631.902 1539.59 631.889 1543.04 633.878L1569.54 649.19C1572.98 651.18 1572.99 654.42 1569.55 656.427L1543.13 671.87C1539.7 673.877 1534.12 673.891 1530.68 671.901L1504.17 656.589C1500.73 654.599 1500.72 651.359 1504.16 649.353L1530.58 633.909Z" fill="#2A1B47"/>
            <path d="M1647.07 520.556C1650.5 518.549 1656.08 518.535 1659.52 520.525L1686.02 535.837C1689.47 537.826 1689.47 541.066 1686.04 543.073L1659.61 558.516C1656.18 560.523 1650.6 560.537 1647.16 558.547L1620.66 543.235C1617.22 541.246 1617.21 538.006 1620.64 535.999L1647.07 520.556Z" fill="#40227A"/>
            <path d="M1750.32 414.917C1761.05 408.646 1778.48 408.603 1789.24 414.821C1800 421.039 1800.03 431.164 1789.3 437.435C1778.56 443.706 1761.14 443.75 1750.38 437.532C1739.62 431.313 1739.59 421.189 1750.32 414.917Z" fill="#2A1B47"/>
            <path d="M1218.05 137.188C1221.48 135.181 1227.06 135.167 1230.5 137.157L1257 152.469C1260.45 154.459 1260.46 157.699 1257.02 159.706L1230.6 175.149C1227.16 177.156 1221.59 177.17 1218.14 175.18L1191.64 159.868C1188.2 157.878 1188.19 154.638 1191.62 152.631L1218.05 137.188Z" fill="#2A1B47"/>
            <path d="M855.077 349.298C865.808 343.027 883.231 342.984 893.993 349.202C904.755 355.42 904.78 365.545 894.049 371.816C883.318 378.087 865.895 378.131 855.133 371.913C844.371 365.695 844.346 355.57 855.077 349.298Z" fill="#2A1B47"/>
            <path d="M2114.52 700.31C2117.95 698.304 2123.53 698.29 2126.97 700.279L2153.47 715.591C2156.92 717.581 2156.92 720.821 2153.49 722.828L2127.07 738.271C2123.63 740.278 2118.06 740.292 2114.61 738.302L2088.11 722.99C2084.67 721 2084.66 717.76 2088.09 715.754L2114.52 700.31Z" fill="#2A1B47"/>
            <path d="M1687.03 950.122C1690.47 948.116 1696.04 948.102 1699.48 950.091L1725.99 965.403C1729.43 967.393 1729.44 970.633 1726 972.64L1699.58 988.083C1696.14 990.09 1690.57 990.104 1687.13 988.114L1660.62 972.802C1657.18 970.812 1657.17 967.572 1660.61 965.566L1687.03 950.122Z" fill="#2A1B47"/>
            <path d="M2075.21 542.108C2078.64 540.101 2084.21 540.087 2087.66 542.077L2114.16 557.389C2117.6 559.378 2117.61 562.618 2114.18 564.625L2087.75 580.068C2084.32 582.075 2078.74 582.089 2075.3 580.099L2048.8 564.787C2045.35 562.798 2045.35 559.558 2048.78 557.551L2075.21 542.108Z" fill="#2A1B47"/>
            <path d="M1725.45 746.496C1728.88 744.49 1734.45 744.476 1737.9 746.465L1764.4 761.777C1767.84 763.767 1767.85 767.007 1764.42 769.014L1737.99 784.457C1734.56 786.464 1728.98 786.478 1725.54 784.488L1699.04 769.176C1695.59 767.186 1695.59 763.947 1699.02 761.94L1725.45 746.496Z" fill="#40227A"/>
            <path d="M1244.26 348.34C1254.99 342.068 1272.41 342.025 1283.17 348.243C1293.94 354.461 1293.96 364.586 1283.23 370.857C1272.5 377.129 1255.08 377.172 1244.31 370.954C1233.55 364.736 1233.53 354.611 1244.26 348.34Z" fill="#2A1B47"/>
            <path d="M1180.18 566.944C1183.61 564.937 1189.19 564.923 1192.63 566.913L1219.13 582.225C1222.58 584.214 1222.58 587.454 1219.15 589.461L1192.73 604.904C1189.29 606.911 1183.72 606.925 1180.27 604.935L1153.77 589.623C1150.33 587.634 1150.32 584.394 1153.75 582.387L1180.18 566.944Z" fill="#2A1B47"/>
            <path d="M1451.88 272.294C1455.32 270.287 1455.31 267.047 1451.87 265.057L1425.37 249.745C1421.92 247.756 1416.35 247.769 1412.91 249.776L1386.49 265.22C1383.05 267.226 1383.06 270.466 1386.5 272.456L1413.01 287.768C1416.45 289.758 1422.03 289.744 1425.46 287.737L1451.88 272.294Z" fill="#40227A"/>
            <path d="M1141.1 499.199C1144.53 497.192 1144.53 493.952 1141.08 491.962L1114.58 476.65C1111.14 474.661 1105.56 474.674 1102.13 476.681L1075.7 492.125C1072.27 494.131 1072.28 497.371 1075.72 499.361L1102.22 514.673C1105.67 516.663 1111.24 516.649 1114.67 514.642L1141.1 499.199Z" fill="#2A1B47"/>
            <path d="M1920.21 813.865C1923.65 811.858 1923.64 808.618 1920.2 806.628L1893.69 791.316C1890.25 789.327 1884.67 789.34 1881.24 791.347L1854.82 806.79C1851.38 808.797 1851.39 812.037 1854.83 814.027L1881.33 829.339C1884.78 831.329 1890.35 831.315 1893.79 829.308L1920.21 813.865Z" fill="#2A1B47"/>
            <path d="M1492.53 973.224C1495.96 971.217 1495.95 967.977 1492.51 965.988L1466.01 950.676C1462.56 948.686 1456.99 948.7 1453.55 950.707L1427.13 966.15C1423.69 968.157 1423.7 971.397 1427.15 973.386L1453.65 988.698C1457.09 990.688 1462.67 990.674 1466.1 988.667L1492.53 973.224Z" fill="#2A1B47"/>
            <path d="M1530.37 543.46C1533.81 541.453 1533.8 538.213 1530.36 536.223L1503.85 520.911C1500.41 518.921 1494.83 518.935 1491.4 520.942L1464.98 536.385C1461.54 538.392 1461.55 541.632 1464.99 543.622L1491.49 558.934C1494.94 560.924 1500.51 560.91 1503.95 558.903L1530.37 543.46Z" fill="#2A1B47"/>
            <path d="M829.66 500.028C833.094 498.021 833.086 494.781 829.642 492.791L803.141 477.48C799.697 475.49 794.121 475.504 790.687 477.51L764.262 492.954C760.828 494.961 760.836 498.2 764.28 500.19L790.782 515.502C794.226 517.492 799.801 517.478 803.235 515.471L829.66 500.028Z" fill="#2A1B47"/>
            <path d="M1711.46 437.628C1722.19 431.356 1722.17 421.231 1711.41 415.013C1700.65 408.795 1683.22 408.839 1672.49 415.11C1661.76 421.381 1661.78 431.506 1672.55 437.724C1683.31 443.942 1700.73 443.899 1711.46 437.628Z" fill="#2A1B47"/>
            <path d="M1374.92 634.295C1378.35 632.288 1378.34 629.048 1374.9 627.058L1348.4 611.746C1344.95 609.756 1339.38 609.77 1335.94 611.777L1309.52 627.22C1306.08 629.227 1306.09 632.467 1309.54 634.457L1336.04 649.769C1339.48 651.759 1345.06 651.745 1348.49 649.738L1374.92 634.295Z" fill="#2A1B47"/>
            <path d="M1452.33 453.207C1455.77 451.2 1455.76 447.96 1452.32 445.97L1425.81 430.658C1422.37 428.669 1416.8 428.683 1413.36 430.689L1386.94 446.133C1383.5 448.139 1383.51 451.379 1386.95 453.369L1413.46 468.681C1416.9 470.671 1422.47 470.657 1425.91 468.65L1452.33 453.207Z" fill="#2A1B47"/>
            <path d="M1607.98 452.81C1611.41 450.803 1611.41 447.563 1607.96 445.573L1581.46 430.261C1578.02 428.271 1572.44 428.285 1569.01 430.292L1542.58 445.735C1539.15 447.742 1539.16 450.982 1542.6 452.972L1569.1 468.284C1572.55 470.274 1578.12 470.26 1581.56 468.253L1607.98 452.81Z" fill="#2A1B47"/>
            <path d="M855.135 575.124C865.866 568.852 865.841 558.728 855.079 552.51C844.317 546.291 826.893 546.335 816.162 552.606C805.431 558.877 805.456 569.002 816.218 575.22C826.981 581.438 844.404 581.395 855.135 575.124Z" fill="#40227A"/>
            <path d="M1178.94 69.4318C1182.38 67.425 1187.95 67.4111 1191.4 69.4009L1217.9 84.7129C1221.34 86.7027 1221.35 89.9426 1217.92 91.9494L1191.49 107.393C1188.06 109.4 1182.48 109.413 1179.04 107.424L1152.54 92.1116C1149.09 90.1219 1149.08 86.8819 1152.52 84.8751L1178.94 69.4318Z" fill="#2A1B47"/>
            <path d="M829.182 273.821C832.616 271.814 838.191 271.8 841.635 273.79L868.137 289.102C871.58 291.092 871.588 294.331 868.154 296.338L841.729 311.782C838.295 313.788 832.72 313.802 829.276 311.813L802.775 296.501C799.331 294.511 799.323 291.271 802.757 289.264L829.182 273.821Z" fill="#2A1B47"/>
            <path d="M752.154 590.618C755.588 588.611 761.164 588.597 764.608 590.587L791.109 605.899C794.553 607.889 794.561 611.128 791.127 613.135L764.702 628.579C761.268 630.585 755.692 630.599 752.249 628.61L725.747 613.298C722.303 611.308 722.295 608.068 725.729 606.061L752.154 590.618Z" fill="#2A1B47"/>
            <g class="squares">
                <path class="square-cero" d="M1219.51 725.133C1222.94 723.126 1228.52 723.112 1231.96 725.102L1258.47 740.414C1261.91 742.404 1261.92 745.643 1258.48 747.65L1232.06 763.094C1228.62 765.1 1223.05 765.114 1219.61 763.125L1193.1 747.813C1189.66 745.823 1189.65 742.583 1193.09 740.576L1219.51 725.133Z" fill="#143424"/>
                <path class="square-one" d="M1219.51 725.133C1222.94 723.126 1228.52 723.112 1231.96 725.102L1258.47 740.414C1261.91 742.404 1261.92 745.643 1258.48 747.65L1232.06 763.094C1228.62 765.1 1223.05 765.114 1219.61 763.125L1193.1 747.813C1189.66 745.823 1189.65 742.583 1193.09 740.576L1219.51 725.133Z" fill="#143424"/>
                <path class="square-two" d="M1219.49 717.896C1222.93 715.889 1228.5 715.875 1231.95 717.865L1258.45 733.177C1261.89 735.167 1261.9 738.407 1258.47 740.414L1232.04 755.857C1228.61 757.864 1223.03 757.878 1219.59 755.888L1193.09 740.576C1189.64 738.586 1189.63 735.346 1193.07 733.339L1219.49 717.896Z" fill="#184E33"/>
                <path class="square-three" d="M1219.47 710.66C1222.91 708.653 1228.48 708.639 1231.93 710.629L1258.43 725.941C1261.87 727.93 1261.88 731.17 1258.45 733.177L1232.02 748.62C1228.59 750.627 1223.01 750.641 1219.57 748.651L1193.07 733.339C1189.62 731.35 1189.61 728.11 1193.05 726.103L1219.47 710.66Z" fill="#1C6942"/>
                <path class="square-four" d="M1219.46 703.423C1222.89 701.416 1228.47 701.402 1231.91 703.392L1258.41 718.704C1261.85 720.694 1261.86 723.934 1258.43 725.941L1232 741.384C1228.57 743.391 1222.99 743.405 1219.55 741.415L1193.05 726.103C1189.61 724.113 1189.6 720.873 1193.03 718.866L1219.46 703.423Z" fill="#1D8651"/>
                <path class="square-five" d="M1219.44 696.187C1222.87 694.18 1228.45 694.166 1231.89 696.156L1258.39 711.468C1261.84 713.457 1261.85 716.697 1258.41 718.704L1231.99 734.147C1228.55 736.154 1222.98 736.168 1219.53 734.178L1193.03 718.866C1189.59 716.877 1189.58 713.637 1193.01 711.63L1219.44 696.187Z" fill="#1DA561"/>
                <g filter="url(#filter0_f_4470_14637)">
                <path class="square-six-blur" d="M1219.44 696.187C1222.87 694.18 1228.45 694.166 1231.89 696.156L1258.39 711.468C1261.84 713.457 1261.85 716.697 1258.41 718.704L1231.99 734.147C1228.55 736.154 1222.98 736.168 1219.53 734.178L1193.03 718.866C1189.59 716.877 1189.58 713.637 1193.01 711.63L1219.44 696.187Z" fill="#3DF498"/>
                </g>

            </g>
            
            </g>
            <defs>
            <filter id="filter0_f_4470_14637" x="1138.18" y="643.942" width="175.055" height="142.45" filterUnits="userSpaceOnUse" color-interpolation-filters="sRGB">
            <feFlood flood-opacity="0" result="BackgroundImageFix"/>
            <feBlend mode="normal" in="SourceGraphic" in2="BackgroundImageFix" result="shape"/>
            <feGaussianBlur stdDeviation="24.3055" result="effect1_foregroundBlur_4470_14637"/>
            </filter>
            <radialGradient id="paint0_diamond_4470_14637" cx="0" cy="0" r="1" gradientUnits="userSpaceOnUse" gradientTransform="translate(1229.24 720.198) rotate(145.982) scale(523.929 928.881)">
            <stop stop-color="white"/>
            <stop offset="0.687378" stop-color="#FBFBFB" stop-opacity="0.969937"/>
            <stop offset="1" stop-color="#737373" stop-opacity="0"/>
            </radialGradient>
            </defs>
            </svg>