<svg viewBox="0 0 2000 1518" fill="none" xmlns="http://www.w3.org/2000/svg">
            <mask id="mask0_4_32498" style="mask-type:alpha" maskUnits="userSpaceOnUse" x="-245" y="-512" width="3413" height="2030">
            <rect x="-244.444" y="-511.417" width="3411.86" height="2029.04" fill="url(#paint0_diamond_4_32498)"/>
            </mask>
            <g mask="url(#mask0_4_32498)">
            <path d="M1454.88 -483.781L-192.028 478.695" stroke="#2A1B47" stroke-width="0.625417"/>
            <path d="M1509.03 -452.493L-137.875 509.983" stroke="#2A1B47" stroke-width="0.625417"/>
            <path d="M1563.18 -421.205L-83.7225 541.271" stroke="#2A1B47" stroke-width="0.625417"/>
            <path d="M1617.33 -389.916L-29.5697 572.56" stroke="#2A1B47" stroke-width="0.625417"/>
            <path d="M1671.49 -358.629L24.5824 603.847" stroke="#2A1B47" stroke-width="0.625417"/>
            <path d="M1725.64 -327.34L78.7355 635.136" stroke="#2A1B47" stroke-width="0.625417"/>
            <path d="M1779.79 -296.052L132.888 666.424" stroke="#2A1B47" stroke-width="0.625417"/>
            <path d="M1833.94 -264.764L187.041 697.712" stroke="#2A1B47" stroke-width="0.625417"/>
            <path d="M1888.1 -233.476L241.193 729" stroke="#2A1B47" stroke-width="0.625417"/>
            <path d="M1942.25 -202.188L295.346 760.288" stroke="#2A1B47" stroke-width="0.625417"/>
            <path d="M1996.4 -170.899L349.499 791.577" stroke="#2A1B47" stroke-width="0.625417"/>
            <path d="M2050.55 -139.611L403.651 822.865" stroke="#2A1B47" stroke-width="0.625417"/>
            <path d="M2104.71 -108.323L457.804 854.153" stroke="#2A1B47" stroke-width="0.625417"/>
            <path d="M2158.86 -77.0347L511.956 885.441" stroke="#2A1B47" stroke-width="0.625417"/>
            <path d="M2213.01 -45.7466L566.109 916.729" stroke="#2A1B47" stroke-width="0.625417"/>
            <path d="M2267.17 -14.458L620.262 948.018" stroke="#2A1B47" stroke-width="0.625417"/>
            <path d="M2321.32 16.8298L674.414 979.306" stroke="#2A1B47" stroke-width="0.625417"/>
            <path d="M2375.47 48.1182L728.567 1010.59" stroke="#2A1B47" stroke-width="0.625417"/>
            <path d="M2429.62 79.4065L782.72 1041.88" stroke="#2A1B47" stroke-width="0.625417"/>
            <path d="M2483.78 110.695L836.872 1073.17" stroke="#2A1B47" stroke-width="0.625417"/>
            <path d="M2537.93 141.983L891.025 1104.46" stroke="#2A1B47" stroke-width="0.625417"/>
            <path d="M2592.08 173.271L945.178 1135.75" stroke="#2A1B47" stroke-width="0.625417"/>
            <path d="M2646.23 204.559L999.33 1167.03" stroke="#2A1B47" stroke-width="0.625417"/>
            <path d="M2700.39 235.847L1053.48 1198.32" stroke="#2A1B47" stroke-width="0.625417"/>
            <path d="M2754.54 267.136L1107.64 1229.61" stroke="#2A1B47" stroke-width="0.625417"/>
            <path d="M2808.69 298.424L1161.79 1260.9" stroke="#2A1B47" stroke-width="0.625417"/>
            <path d="M2862.84 329.712L1215.94 1292.19" stroke="#2A1B47" stroke-width="0.625417"/>
            <path d="M2917 361L1270.09 1323.48" stroke="#2A1B47" stroke-width="0.625417"/>
            <path d="M2971.15 392.288L1324.25 1354.76" stroke="#2A1B47" stroke-width="0.625417"/>
            <path d="M3025.3 423.576L1378.4 1386.05" stroke="#2A1B47" stroke-width="0.625417"/>
            <path d="M3079.45 454.865L1432.55 1417.34" stroke="#2A1B47" stroke-width="0.625417"/>
            <path d="M3107.98 471.347L1454.91 -483.761" stroke="#2A1B47" stroke-width="0.625417"/>
            <path d="M3053.99 502.905L1400.91 -452.204" stroke="#2A1B47" stroke-width="0.625417"/>
            <path d="M2999.99 534.461L1346.92 -420.648" stroke="#2A1B47" stroke-width="0.625417"/>
            <path d="M2945.99 566.017L1292.92 -389.091" stroke="#2A1B47" stroke-width="0.625417"/>
            <path d="M2892 597.574L1238.92 -357.535" stroke="#2A1B47" stroke-width="0.625417"/>
            <path d="M2838 629.13L1184.93 -325.978" stroke="#2A1B47" stroke-width="0.625417"/>
            <path d="M2784 660.687L1130.93 -294.422" stroke="#2A1B47" stroke-width="0.625417"/>
            <path d="M2730.01 692.243L1076.93 -262.866" stroke="#2A1B47" stroke-width="0.625417"/>
            <path d="M2676.01 723.8L1022.94 -231.309" stroke="#2A1B47" stroke-width="0.625417"/>
            <path d="M2622.01 755.357L968.941 -199.752" stroke="#2A1B47" stroke-width="0.625417"/>
            <path d="M2568.02 786.912L914.943 -168.197" stroke="#2A1B47" stroke-width="0.625417"/>
            <path d="M2514.02 818.469L860.947 -136.64" stroke="#2A1B47" stroke-width="0.625417"/>
            <path d="M2460.02 850.026L806.95 -105.083" stroke="#2A1B47" stroke-width="0.625417"/>
            <path d="M2406.03 881.583L752.954 -73.526" stroke="#2A1B47" stroke-width="0.625417"/>
            <path d="M2352.03 913.138L698.956 -41.9706" stroke="#2A1B47" stroke-width="0.625417"/>
            <path d="M2298.03 944.695L644.96 -10.4139" stroke="#2A1B47" stroke-width="0.625417"/>
            <path d="M2244.04 976.252L590.963 21.1437" stroke="#2A1B47" stroke-width="0.625417"/>
            <path d="M2190.04 1007.81L536.964 52.6974" stroke="#2A1B47" stroke-width="0.625417"/>
            <path d="M2136.04 1039.36L482.967 84.2516" stroke="#2A1B47" stroke-width="0.625417"/>
            <path d="M2082.04 1070.91L428.969 115.805" stroke="#2A1B47" stroke-width="0.625417"/>
            <path d="M2028.04 1102.47L374.972 147.36" stroke="#2A1B47" stroke-width="0.625417"/>
            <path d="M1974.05 1134.02L320.973 178.914" stroke="#2A1B47" stroke-width="0.625417"/>
            <path d="M1920.05 1165.58L266.976 210.468" stroke="#2A1B47" stroke-width="0.625417"/>
            <path d="M1866.05 1197.13L212.979 242.023" stroke="#2A1B47" stroke-width="0.625417"/>
            <path d="M1812.05 1228.69L158.981 273.577" stroke="#2A1B47" stroke-width="0.625417"/>
            <path d="M1758.06 1260.24L104.982 305.131" stroke="#2A1B47" stroke-width="0.625417"/>
            <path d="M1704.06 1291.79L50.9845 336.685" stroke="#2A1B47" stroke-width="0.625417"/>
            <path d="M1650.06 1323.35L-3.01268 368.24" stroke="#2A1B47" stroke-width="0.625417"/>
            <path d="M1596.06 1354.9L-57.0098 399.794" stroke="#2A1B47" stroke-width="0.625417"/>
            <path d="M1542.06 1386.46L-111.008 431.348" stroke="#2A1B47" stroke-width="0.625417"/>
            <path d="M1488.07 1418.01L-165.006 462.902" stroke="#2A1B47" stroke-width="0.625417"/>
            <g class="anima"> 
                <path id="pathOne" d="M1725.37 -12.7163L1078.21 365.496L1403.06 553.185L1431.9 536.33" stroke="#3DF498" stroke-width="0.625417"/>
                <path id="pathTwo" d="M1427.7 504.662L1186.32 365.199L1672.02 81.3502L1511.69 -11.2832" stroke="#3DF498" stroke-width="0.625417"/>
                <path id="pathThree" d="M852.434 423.296L1024.5 522.71L1240.49 396.482L1456.87 521.505" stroke="#3DF498" stroke-width="0.625417"/>
                <path id="pathFour" d="M1456.85 521.743L1187.13 679.369L1405.11 805.311" stroke="#3DF498" stroke-width="0.625417"/>
                <path id="pathFive" d="M1619.44 803.637L1349.31 647.563L1511.28 552.908L1475.17 532.048" stroke="#3DF498" stroke-width="0.625417"/>
                <path id="pathSix" d="M807.295 334.451L916.058 397.292L1185.85 239.621L1456.61 396.061L1348.8 459.066L1454.29 520.011" stroke="#3DF498" stroke-width="0.625417"/>
                <path id="pathSeven" d="M755.749 553.924L970.219 428.585L1240.98 585.025L1295.02 616.248L1444.25 529.035" stroke="#3DF498" stroke-width="0.625417"/>
                <path id="pathEight" d="M1915.17 128.089L1726.79 238.178L1835.09 300.749L1457.19 521.599" stroke="#3DF498" stroke-width="0.625417"/>
                <path id="pathNine" d="M2249.26 247.482L1727.56 552.373L1673.42 521.092L1565.44 584.209L1459.46 522.978" stroke="#3DF498" stroke-width="0.625417"/>
                <path id="pathTen" d="M2048.31 612.311L1727.12 426.732L1565.18 521.373L1511.25 552.901L1459.46 522.98" stroke="#3DF498" stroke-width="0.625417"/>
                <path id="pathEleven" d="M1999.39 772.168L1836.7 678.169L1727.69 615.191L1673.71 646.763L1459.46 522.978" stroke="#3DF498" stroke-width="0.625417"/>

                <circle  class="circle-one" r="4"></circle>
                <circle  class="circle-two" r="4"></circle>
                <circle  class="circle-three" r="4"></circle>
                <circle  class="circle-four" r="4"></circle>
                <circle  class="circle-five" r="4"></circle>
                <circle  class="circle-six" r="4"></circle>
                <circle  class="circle-seven" r="4"></circle>
                <circle  class="circle-eigth" r="4"></circle>
                <circle  class="circle-nine" r="4"></circle>
                <circle  class="circle-ten" r="4"></circle>
                <circle  class="circle-eleven" r="4"></circle>


            </g>
            
            <path d="M402.848 477.249C417.759 468.535 441.969 468.475 456.923 477.115C471.877 485.755 471.911 499.823 457.001 508.537C442.09 517.251 417.88 517.311 402.926 508.671C387.972 500.031 387.937 485.963 402.848 477.249Z" fill="#2A1B47"/>
            <path d="M24.1429 446.709C39.0537 437.995 63.2638 437.935 78.2176 446.575C93.1714 455.215 93.2064 469.283 78.2956 477.997C63.3848 486.711 39.1747 486.771 24.2209 478.131C9.26706 469.491 9.23214 455.423 24.1429 446.709Z" fill="#2A1B47"/>
            <path d="M1017.41 1062.01C1022.18 1059.22 1029.92 1059.2 1034.71 1061.97L1071.53 1083.24C1076.32 1086.01 1076.33 1090.51 1071.56 1093.3L1034.84 1114.76C1030.07 1117.55 1022.32 1117.57 1017.54 1114.8L980.712 1093.53C975.927 1090.76 975.916 1086.26 980.687 1083.47L1017.41 1062.01Z" fill="#2A1B47"/>
            <path d="M258.356 246.92C263.127 244.132 270.874 244.112 275.66 246.877L312.483 268.153C317.269 270.918 317.28 275.42 312.508 278.208L275.791 299.667C271.019 302.455 263.272 302.475 258.487 299.71L221.663 278.434C216.878 275.669 216.866 271.167 221.638 268.379L258.356 246.92Z" fill="#2A1B47"/>
            <path d="M564.785 382.548C579.696 373.834 603.906 373.774 618.859 382.414C633.813 391.054 633.848 405.122 618.937 413.836C604.027 422.551 579.817 422.611 564.863 413.971C549.909 405.331 549.874 391.262 564.785 382.548Z" fill="#2A1B47"/>
            <path d="M1828.16 902.899C1832.93 900.11 1840.68 900.091 1845.46 902.856L1882.29 924.132C1887.07 926.896 1887.08 931.398 1882.31 934.187L1845.59 955.645C1840.82 958.434 1833.08 958.453 1828.29 955.688L1791.47 934.412C1786.68 931.647 1786.67 927.146 1791.44 924.357L1828.16 902.899Z" fill="#2A1B47"/>
            <path d="M1485.35 914.433C1500.26 905.718 1524.47 905.658 1539.43 914.298C1554.38 922.938 1554.42 937.007 1539.51 945.721C1524.6 954.435 1500.39 954.495 1485.43 945.855C1470.48 937.215 1470.44 923.147 1485.35 914.433Z" fill="#2A1B47"/>
            <path d="M1396.34 778.901C1401.11 776.113 1408.86 776.094 1413.64 778.858L1450.47 800.134C1455.25 802.899 1455.26 807.401 1450.49 810.19L1413.78 831.648C1409 834.436 1401.26 834.456 1396.47 831.691L1359.65 810.415C1354.86 807.65 1354.85 803.148 1359.62 800.36L1396.34 778.901Z" fill="#40227A"/>
            <path d="M1106.75 883.948C1121.66 875.234 1145.87 875.174 1160.83 883.814C1175.78 892.454 1175.81 906.522 1160.9 915.236C1145.99 923.95 1121.78 924.011 1106.83 915.371C1091.88 906.731 1091.84 892.662 1106.75 883.948Z" fill="#2A1B47"/>
            <path d="M800.952 999.703C805.724 996.914 813.471 996.895 818.256 999.66L855.08 1020.94C859.865 1023.7 859.877 1028.2 855.105 1030.99L818.387 1052.45C813.616 1055.24 805.869 1055.26 801.083 1052.49L764.26 1031.22C759.474 1028.45 759.463 1023.95 764.235 1021.16L800.952 999.703Z" fill="#2A1B47"/>
            <path d="M348.486 383.085C363.396 374.371 387.606 374.311 402.56 382.951C417.514 391.591 417.549 405.659 402.638 414.373C387.727 423.087 363.517 423.147 348.564 414.507C333.61 405.867 333.575 391.799 348.486 383.085Z" fill="#2A1B47"/>
            <path d="M150.517 372.877C155.288 370.089 163.036 370.069 167.821 372.834L204.645 394.11C209.43 396.875 209.441 401.377 204.67 404.165L167.952 425.624C163.18 428.412 155.433 428.432 150.648 425.667L113.824 404.391C109.039 401.626 109.028 397.124 113.799 394.336L150.517 372.877Z" fill="#2A1B47"/>
            <path d="M1611.86 903.435C1616.63 900.647 1624.38 900.628 1629.16 903.392L1665.99 924.668C1670.77 927.433 1670.78 931.935 1666.01 934.723L1629.29 956.182C1624.52 958.97 1616.78 958.99 1611.99 956.225L1575.17 934.949C1570.38 932.184 1570.37 927.682 1575.14 924.894L1611.86 903.435Z" fill="#2A1B47"/>
            <path d="M240.802 571.889C255.713 563.175 279.923 563.114 294.877 571.754C309.831 580.394 309.866 594.463 294.955 603.177C280.044 611.891 255.834 611.951 240.88 603.311C225.926 594.671 225.891 580.603 240.802 571.889Z" fill="#2A1B47"/>
            <path d="M962.498 716.51C967.269 713.722 975.016 713.703 979.802 716.468L1016.63 737.744C1021.41 740.508 1021.42 745.01 1016.65 747.799L979.933 769.257C975.161 772.046 967.414 772.065 962.629 769.3L925.805 748.024C921.02 745.259 921.009 740.757 925.78 737.969L962.498 716.51Z" fill="#2A1B47"/>
            <path d="M997.694 507.164C1012.6 498.45 1036.81 498.39 1051.77 507.03C1066.72 515.67 1066.76 529.738 1051.85 538.452C1036.94 547.166 1012.73 547.226 997.772 538.586C982.818 529.946 982.783 515.878 997.694 507.164Z" fill="#2A1B47"/>
            <path d="M421.911 780.701C426.682 777.912 434.43 777.893 439.215 780.658L476.039 801.934C480.824 804.699 480.835 809.201 476.064 811.989L439.346 833.448C434.574 836.236 426.827 836.255 422.042 833.49L385.218 812.214C380.433 809.45 380.422 804.948 385.193 802.159L421.911 780.701Z" fill="#2A1B47"/>
            <path d="M1341.88 1061.22C1346.65 1058.43 1354.39 1058.41 1359.18 1061.18L1396 1082.45C1400.79 1085.22 1400.8 1089.72 1396.03 1092.51L1359.31 1113.96C1354.54 1116.75 1346.79 1116.77 1342.01 1114.01L1305.18 1092.73C1300.4 1089.97 1300.39 1085.46 1305.16 1082.68L1341.88 1061.22Z" fill="#2A1B47"/>
            <path d="M1016.34 622.113C1021.11 619.324 1028.86 619.305 1033.65 622.07L1070.47 643.346C1075.26 646.11 1075.27 650.612 1070.5 653.401L1033.78 674.859C1029.01 677.648 1021.26 677.667 1016.47 674.902L979.65 653.626C974.865 650.861 974.854 646.359 979.625 643.571L1016.34 622.113Z" fill="#2A1B47"/>
            <path d="M638.208 780.165C642.98 777.376 650.727 777.357 655.512 780.122L692.336 801.398C697.121 804.162 697.132 808.664 692.361 811.453L655.643 832.911C650.872 835.7 643.125 835.719 638.339 832.954L601.516 811.678C596.73 808.913 596.719 804.411 601.491 801.623L638.208 780.165Z" fill="#2A1B47"/>
            <path d="M474.876 309.251C479.648 306.462 487.395 306.443 492.18 309.208L529.004 330.484C533.789 333.249 533.8 337.75 529.029 340.539L492.311 361.997C487.54 364.786 479.793 364.805 475.007 362.04L438.184 340.764C433.398 338 433.387 333.498 438.159 330.709L474.876 309.251Z" fill="#40227A"/>
            <path d="M1864.11 1007.76C1879.02 999.047 1903.23 998.987 1918.18 1007.63C1933.14 1016.27 1933.17 1030.33 1918.26 1039.05C1903.35 1047.76 1879.14 1047.82 1864.19 1039.18C1849.23 1030.54 1849.2 1016.47 1864.11 1007.76Z" fill="#2A1B47"/>
            <path d="M1396.47 1281.03C1401.25 1278.24 1408.99 1278.22 1413.78 1280.99L1450.6 1302.26C1455.39 1305.03 1455.4 1309.53 1450.63 1312.32L1413.91 1333.78C1409.14 1336.56 1401.39 1336.58 1396.6 1333.82L1359.78 1312.54C1355 1309.78 1354.98 1305.28 1359.76 1302.49L1396.47 1281.03Z" fill="#2A1B47"/>
            <path d="M1720.79 1217.39C1725.56 1214.6 1733.31 1214.58 1738.09 1217.35L1774.92 1238.62C1779.7 1241.39 1779.71 1245.89 1774.94 1248.68L1738.22 1270.14C1733.45 1272.92 1725.71 1272.94 1720.92 1270.18L1684.1 1248.9C1679.31 1246.14 1679.3 1241.64 1684.07 1238.85L1720.79 1217.39Z" fill="#2A1B47"/>
            <path d="M1395.54 903.959C1400.31 901.171 1408.06 901.151 1412.85 903.916L1449.67 925.192C1454.45 927.957 1454.47 932.459 1449.69 935.247L1412.98 956.706C1408.21 959.494 1400.46 959.514 1395.67 956.749L1358.85 935.473C1354.06 932.708 1354.05 928.206 1358.82 925.418L1395.54 903.959Z" fill="#40227A"/>
            <path d="M745.756 528.529C750.527 525.741 758.274 525.722 763.06 528.486L799.883 549.762C804.669 552.527 804.68 557.029 799.908 559.817L763.191 581.276C758.419 584.064 750.672 584.084 745.887 581.319L709.063 560.043C704.278 557.278 704.267 552.776 709.038 549.988L745.756 528.529Z" fill="#2A1B47"/>
            <path d="M1544.33 1136.77C1559.24 1128.06 1583.45 1128 1598.4 1136.64C1613.36 1145.28 1613.39 1159.35 1598.48 1168.06C1583.57 1176.77 1559.36 1176.83 1544.41 1168.19C1529.45 1159.55 1529.42 1145.49 1544.33 1136.77Z" fill="#2A1B47"/>
            <path d="M1558 997.825C1562.77 995.036 1570.52 995.017 1575.3 997.782L1612.13 1019.06C1616.91 1021.82 1616.92 1026.32 1612.15 1029.11L1575.43 1050.57C1570.66 1053.36 1562.91 1053.38 1558.13 1050.61L1521.3 1029.34C1516.52 1026.57 1516.51 1022.07 1521.28 1019.28L1558 997.825Z" fill="#2A1B47"/>
            <path d="M1234.02 1187.16C1238.79 1184.37 1246.54 1184.35 1251.32 1187.12L1288.15 1208.4C1292.93 1211.16 1292.94 1215.66 1288.17 1218.45L1251.45 1239.91C1246.68 1242.7 1238.94 1242.72 1234.15 1239.95L1197.33 1218.68C1192.54 1215.91 1192.53 1211.41 1197.3 1208.62L1234.02 1187.16Z" fill="#2A1B47"/>
            <path d="M1125.27 936.064C1130.04 933.276 1137.78 933.256 1142.57 936.021L1179.39 957.297C1184.18 960.062 1184.19 964.564 1179.42 967.352L1142.7 988.811C1137.93 991.599 1130.18 991.619 1125.4 988.854L1088.57 967.578C1083.79 964.813 1083.78 960.311 1088.55 957.523L1125.27 936.064Z" fill="#2A1B47"/>
            <path d="M475.517 560.62C480.289 557.831 488.036 557.812 492.821 560.577L529.645 581.853C534.43 584.618 534.441 589.12 529.67 591.908L492.952 613.366C488.181 616.155 480.433 616.174 475.648 613.409L438.824 592.133C434.039 589.369 434.028 584.867 438.799 582.078L475.517 560.62Z" fill="#40227A"/>
            <path d="M890.585 947.32C905.496 938.606 929.706 938.546 944.66 947.186C959.614 955.826 959.649 969.894 944.738 978.608C929.827 987.322 905.617 987.382 890.663 978.742C875.709 970.102 875.674 956.034 890.585 947.32Z" fill="#2A1B47"/>
            <path d="M1052.44 789.815C1067.35 781.101 1091.56 781.041 1106.52 789.681C1121.47 798.321 1121.51 812.389 1106.6 821.104C1091.69 829.818 1067.47 829.878 1052.52 821.238C1037.57 812.598 1037.53 798.529 1052.44 789.815Z" fill="#2A1B47"/>
            <path d="M728.283 916.3C743.194 907.586 767.404 907.526 782.358 916.166C797.312 924.806 797.346 938.874 782.436 947.588C767.525 956.303 743.315 956.363 728.361 947.723C713.407 939.083 713.372 925.014 728.283 916.3Z" fill="#2A1B47"/>
            <path d="M474.682 246.398C479.453 243.61 487.201 243.59 491.986 246.355L528.81 267.631C533.595 270.396 533.606 274.898 528.835 277.686L492.117 299.145C487.345 301.933 479.598 301.953 474.813 299.188L437.989 277.912C433.204 275.147 433.193 270.645 437.964 267.857L474.682 246.398Z" fill="#2A1B47"/>
            <path d="M-11.3107 530.395C-6.5393 527.606 1.20792 527.587 5.99314 530.352L42.8169 551.628C47.6022 554.393 47.6133 558.895 42.8419 561.683L6.12413 583.142C1.35268 585.93 -6.39454 585.949 -11.1798 583.185L-48.0036 561.909C-52.7888 559.144 -52.8 554.642 -48.0285 551.853L-11.3107 530.395Z" fill="#2A1B47"/>
            <path d="M1720.32 1028.86C1725.09 1026.07 1732.84 1026.05 1737.63 1028.81L1774.45 1050.09C1779.23 1052.85 1779.25 1057.35 1774.47 1060.14L1737.76 1081.6C1732.99 1084.39 1725.24 1084.41 1720.45 1081.64L1683.63 1060.37C1678.84 1057.6 1678.83 1053.1 1683.6 1050.31L1720.32 1028.86Z" fill="#2A1B47"/>
            <path d="M1611.58 777.761C1616.35 774.972 1624.09 774.953 1628.88 777.718L1665.7 798.994C1670.49 801.759 1670.5 806.26 1665.73 809.049L1629.01 830.507C1624.24 833.296 1616.49 833.315 1611.71 830.55L1574.88 809.274C1570.1 806.51 1570.09 802.008 1574.86 799.219L1611.58 777.761Z" fill="#2A1B47"/>
            <path d="M1161.35 1103.76C1176.26 1095.05 1200.47 1094.99 1215.42 1103.63C1230.38 1112.27 1230.41 1126.33 1215.5 1135.05C1200.59 1143.76 1176.38 1143.82 1161.43 1135.18C1146.47 1126.54 1146.44 1112.47 1161.35 1103.76Z" fill="#2A1B47"/>
            <path d="M583.454 497.508C588.226 494.72 595.973 494.7 600.758 497.465L637.582 518.741C642.367 521.506 642.378 526.008 637.607 528.796L600.889 550.255C596.118 553.043 588.37 553.062 583.585 550.298L546.761 529.022C541.976 526.257 541.965 521.755 546.736 518.966L583.454 497.508Z" fill="#2A1B47"/>
            <path d="M907.754 433.853C912.525 431.065 912.514 426.563 907.729 423.798L870.905 402.522C866.12 399.758 858.373 399.777 853.601 402.565L816.884 424.024C812.112 426.812 812.123 431.314 816.908 434.079L853.732 455.355C858.518 458.12 866.265 458.1 871.036 455.312L907.754 433.853Z" fill="#2A1B47"/>
            <path d="M367.761 749.41C372.533 746.622 372.522 742.12 367.736 739.355L330.913 718.079C326.127 715.314 318.38 715.334 313.609 718.122L276.891 739.581C272.12 742.369 272.131 746.871 276.916 749.636L313.74 770.912C318.525 773.677 326.272 773.657 331.044 770.869L367.761 749.41Z" fill="#2A1B47"/>
            <path d="M1431.98 1197.37C1446.89 1188.65 1446.85 1174.59 1431.9 1165.95C1416.95 1157.31 1392.74 1157.37 1377.83 1166.08C1362.91 1174.79 1362.95 1188.86 1377.9 1197.5C1392.86 1206.14 1417.07 1206.08 1431.98 1197.37Z" fill="#2A1B47"/>
            <path d="M908.656 810.911C913.427 808.123 913.416 803.621 908.631 800.856L871.807 779.58C867.022 776.815 859.275 776.835 854.503 779.623L817.786 801.082C813.014 803.87 813.025 808.372 817.811 811.137L854.634 832.413C859.42 835.178 867.167 835.158 871.938 832.37L908.656 810.911Z" fill="#2A1B47"/>
            <path d="M1160.28 663.858C1175.19 655.144 1175.16 641.075 1160.2 632.435C1145.25 623.796 1121.04 623.856 1106.13 632.57C1091.22 641.284 1091.25 655.352 1106.21 663.992C1121.16 672.632 1145.37 672.572 1160.28 663.858Z" fill="#2A1B47"/>
            <path d="M692.647 937.127C697.419 934.338 697.408 929.836 692.623 927.072L655.799 905.796C651.013 903.031 643.266 903.05 638.495 905.838L601.777 927.297C597.006 930.085 597.017 934.587 601.802 937.352L638.626 958.628C643.411 961.393 651.158 961.374 655.93 958.585L692.647 937.127Z" fill="#2A1B47"/>
            <path d="M673.878 759.319C688.789 750.605 688.754 736.536 673.8 727.896C658.846 719.256 634.636 719.317 619.725 728.031C604.814 736.745 604.849 750.813 619.803 759.453C634.757 768.093 658.967 768.033 673.878 759.319Z" fill="#2A1B47"/>
            <path d="M854.233 653.942C859.005 651.154 858.993 646.652 854.208 643.887L817.384 622.611C812.599 619.846 804.852 619.865 800.08 622.654L763.363 644.112C758.591 646.901 758.602 651.403 763.388 654.168L800.211 675.443C804.997 678.208 812.744 678.189 817.515 675.401L854.233 653.942Z" fill="#40227A"/>
            <path d="M401.986 162.98C416.897 154.266 441.107 154.206 456.061 162.846C471.015 171.486 471.05 185.554 456.139 194.268C441.228 202.982 417.018 203.042 402.064 194.402C387.11 185.762 387.076 171.694 401.986 162.98Z" fill="#2A1B47"/>
            <path d="M1989.38 494.009C1994.15 491.221 2001.89 491.202 2006.68 493.967L2043.5 515.243C2048.29 518.007 2048.3 522.509 2043.53 525.298L2006.81 546.756C2002.04 549.545 1994.29 549.564 1989.51 546.799L1952.68 525.523C1947.9 522.758 1947.89 518.256 1952.66 515.468L1989.38 494.009Z" fill="#2A1B47"/>
            <path d="M852.685 25.5176C857.457 22.729 865.204 22.7098 869.989 25.4746L906.813 46.7506C911.598 49.5154 911.61 54.0172 906.838 56.8057L870.12 78.2642C865.349 81.0527 857.602 81.0719 852.816 78.3071L815.993 57.0311C811.207 54.2663 811.196 49.7645 815.968 46.976L852.685 25.5176Z" fill="#40227A"/>
            <path d="M1050.76 98.5429C1065.67 89.8288 1089.88 89.7688 1104.84 98.4087C1119.79 107.049 1119.82 121.117 1104.91 129.831C1090 138.545 1065.79 138.605 1050.84 129.965C1035.89 121.325 1035.85 107.257 1050.76 98.5429Z" fill="#2A1B47"/>
            <path d="M2043.71 588.153C2048.48 585.364 2056.23 585.345 2061.01 588.11L2097.84 609.386C2102.62 612.15 2102.63 616.652 2097.86 619.441L2061.14 640.899C2056.37 643.688 2048.62 643.707 2043.84 640.942L2007.01 619.666C2002.23 616.901 2002.22 612.4 2006.99 609.611L2043.71 588.153Z" fill="#2A1B47"/>
            <path d="M1827.23 525.833C1832 523.045 1839.75 523.025 1844.53 525.79L1881.36 547.066C1886.14 549.831 1886.15 554.333 1881.38 557.121L1844.67 578.58C1839.89 581.368 1832.15 581.388 1827.36 578.623L1790.54 557.347C1785.75 554.582 1785.74 550.08 1790.51 547.292L1827.23 525.833Z" fill="#2A1B47"/>
            <path d="M690.355 -5.51663C695.127 -8.30514 702.874 -8.32436 707.659 -5.55957L744.483 15.7164C749.268 18.4812 749.279 22.9831 744.508 25.7716L707.79 47.23C703.019 50.0185 695.271 50.0377 690.486 47.2729L653.662 25.997C648.877 23.2322 648.866 18.7303 653.638 15.9418L690.355 -5.51663Z" fill="#2A1B47"/>
            <path d="M636.495 88.873C641.266 86.0845 649.013 86.0653 653.798 88.8301L690.622 110.106C695.407 112.871 695.419 117.373 690.647 120.161L653.929 141.62C649.158 144.408 641.411 144.427 636.626 141.663L599.802 120.387C595.017 117.622 595.005 113.12 599.777 110.331L636.495 88.873Z" fill="#2A1B47"/>
            <path d="M1988.95 745.996C1993.72 743.208 2001.46 743.189 2006.25 745.953L2043.07 767.229C2047.86 769.994 2047.87 774.496 2043.1 777.285L2006.38 798.743C2001.61 801.531 1993.86 801.551 1989.08 798.786L1952.25 777.51C1947.47 774.745 1947.46 770.243 1952.23 767.455L1988.95 745.996Z" fill="#40227A"/>
            <path d="M1212.77 3.88495C1227.68 -4.82914 1251.89 -4.8892 1266.85 3.75079C1281.8 12.3908 1281.84 26.4591 1266.92 35.1731C1252.01 43.8872 1227.8 43.9473 1212.85 35.3073C1197.9 26.6673 1197.86 12.599 1212.77 3.88495Z" fill="#2A1B47"/>
            <path d="M1936.16 839.787C1940.93 836.998 1948.68 836.979 1953.47 839.744L1990.29 861.02C1995.08 863.785 1995.09 868.287 1990.32 871.075L1953.6 892.533C1948.83 895.322 1941.08 895.341 1936.29 892.576L1899.47 871.3C1894.68 868.536 1894.67 864.034 1899.44 861.245L1936.16 839.787Z" fill="#2A1B47"/>
            <path d="M1610.18 212.162C1614.95 209.373 1622.7 209.354 1627.48 212.119L1664.31 233.395C1669.09 236.159 1669.1 240.661 1664.33 243.45L1627.61 264.908C1622.84 267.697 1615.1 267.716 1610.31 264.951L1573.49 243.675C1568.7 240.91 1568.69 236.409 1573.46 233.62L1610.18 212.162Z" fill="#2A1B47"/>
            <path d="M834.123 -26.6241C849.034 -35.3382 873.244 -35.3982 888.197 -26.7582C903.151 -18.1183 903.186 -4.04998 888.275 4.66411C873.365 13.3782 849.155 13.4383 834.201 4.79828C819.247 -3.84171 819.212 -17.91 834.123 -26.6241Z" fill="#2A1B47"/>
            <path d="M1609.89 86.4814C1614.66 83.6929 1622.41 83.6737 1627.19 86.4385L1664.02 107.714C1668.8 110.479 1668.81 114.981 1664.04 117.77L1627.33 139.228C1622.55 142.017 1614.81 142.036 1610.02 139.271L1573.2 117.995C1568.41 115.23 1568.4 110.728 1573.17 107.94L1609.89 86.4814Z" fill="#2A1B47"/>
            <path d="M1754.16 694.433C1769.07 685.718 1793.28 685.658 1808.24 694.298C1823.19 702.938 1823.22 717.007 1808.31 725.721C1793.4 734.435 1769.19 734.495 1754.24 725.855C1739.28 717.215 1739.25 703.147 1754.16 694.433Z" fill="#2A1B47"/>
            <path d="M1611.24 652.059C1616.02 649.271 1623.76 649.252 1628.55 652.016L1665.37 673.292C1670.16 676.057 1670.17 680.559 1665.4 683.347L1628.68 704.806C1623.91 707.594 1616.16 707.614 1611.38 704.849L1574.55 683.573C1569.77 680.808 1569.75 676.306 1574.53 673.518L1611.24 652.059Z" fill="#2A1B47"/>
            <path d="M1717.46 -39.6272C1722.23 -42.4157 1729.98 -42.435 1734.77 -39.6702L1771.59 -18.3942C1776.38 -15.6294 1776.39 -11.1275 1771.62 -8.33903L1734.9 13.1194C1730.13 15.9079 1722.38 15.9271 1717.59 13.1623L1680.77 -8.11363C1675.98 -10.8784 1675.97 -15.3803 1680.75 -18.1688L1717.46 -39.6272Z" fill="#40227A"/>
            <path d="M1375.08 34.903C1389.99 26.1889 1414.2 26.1289 1429.15 34.7689C1444.11 43.4088 1444.14 57.4771 1429.23 66.1912C1414.32 74.9053 1390.11 74.9654 1375.16 66.3254C1360.2 57.6854 1360.17 43.6171 1375.08 34.903Z" fill="#2A1B47"/>
            <path d="M618.43 225.374C633.341 216.66 657.551 216.6 672.505 225.24C687.459 233.88 687.493 247.949 672.583 256.663C657.672 265.377 633.462 265.437 618.508 256.797C603.554 248.157 603.519 234.089 618.43 225.374Z" fill="#2A1B47"/>
            <path d="M1880.91 368.588C1885.69 365.8 1893.43 365.78 1898.22 368.545L1935.04 389.821C1939.83 392.586 1939.84 397.088 1935.07 399.876L1898.35 421.335C1893.58 424.123 1885.83 424.142 1881.05 421.378L1844.22 400.102C1839.44 397.337 1839.43 392.835 1844.2 390.047L1880.91 368.588Z" fill="#2A1B47"/>
            <path d="M2042.77 211.083C2047.54 208.295 2055.29 208.276 2060.08 211.041L2096.9 232.317C2101.69 235.081 2101.7 239.583 2096.92 242.372L2060.21 263.83C2055.44 266.619 2047.69 266.638 2042.9 263.873L2006.08 242.597C2001.29 239.832 2001.28 235.33 2006.05 232.542L2042.77 211.083Z" fill="#40227A"/>
            <path d="M942.301 -26.8782C957.211 -35.5923 981.421 -35.6524 996.375 -27.0124C1011.33 -18.3724 1011.36 -4.30413 996.453 4.40996C981.542 13.1241 957.332 13.1841 942.378 4.54413C927.425 -4.09586 927.39 -18.1641 942.301 -26.8782Z" fill="#2A1B47"/>
            <path d="M1483.07 -28.2103C1497.98 -36.9244 1522.19 -36.9844 1537.15 -28.3444C1552.1 -19.7044 1552.13 -5.63616 1537.22 3.07793C1522.31 11.792 1498.1 11.8521 1483.15 3.2121C1468.19 -5.42789 1468.16 -19.4962 1483.07 -28.2103Z" fill="#2A1B47"/>
            <path d="M1394.03 275.539C1398.8 272.751 1406.55 272.732 1411.33 275.496L1448.16 296.772C1452.94 299.537 1452.95 304.039 1448.18 306.827L1411.46 328.286C1406.69 331.074 1398.95 331.094 1394.16 328.329L1357.34 307.053C1352.55 304.288 1352.54 299.786 1357.31 296.998L1394.03 275.539Z" fill="#2A1B47"/>
            <path d="M1339.73 181.408C1344.5 178.62 1344.49 174.118 1339.71 171.353L1302.88 150.077C1298.1 147.312 1290.35 147.332 1285.58 150.12L1248.86 171.579C1244.09 174.367 1244.1 178.869 1248.89 181.634L1285.71 202.91C1290.49 205.675 1298.24 205.655 1303.01 202.867L1339.73 181.408Z" fill="#2A1B47"/>
            <path d="M1828.03 840.066C1832.81 837.278 1832.8 832.776 1828.01 830.011L1791.19 808.735C1786.4 805.97 1778.65 805.99 1773.88 808.778L1737.16 830.237C1732.39 833.025 1732.4 837.527 1737.19 840.292L1774.01 861.568C1778.8 864.333 1786.55 864.313 1791.32 861.525L1828.03 840.066Z" fill="#2A1B47"/>
            <path d="M1880.63 242.908C1885.4 240.12 1885.39 235.618 1880.6 232.853L1843.78 211.577C1838.99 208.812 1831.24 208.832 1826.47 211.62L1789.76 233.079C1784.98 235.867 1785 240.369 1789.78 243.134L1826.6 264.41C1831.39 267.175 1839.14 267.155 1843.91 264.367L1880.63 242.908Z" fill="#2A1B47"/>
            <path d="M906.986 182.561C911.757 179.772 911.746 175.27 906.961 172.505L870.137 151.229C865.352 148.465 857.604 148.484 852.833 151.272L816.115 172.731C811.344 175.519 811.355 180.021 816.14 182.786L852.964 204.062C857.749 206.827 865.496 206.807 870.268 204.019L906.986 182.561Z" fill="#2A1B47"/>
            <path d="M1664.62 369.124C1669.39 366.336 1669.38 361.834 1664.59 359.069L1627.77 337.793C1622.98 335.028 1615.24 335.048 1610.46 337.836L1573.75 359.294C1568.98 362.083 1568.99 366.585 1573.77 369.35L1610.6 390.626C1615.38 393.39 1623.13 393.371 1627.9 390.583L1664.62 369.124Z" fill="#2A1B47"/>
            <path d="M1772.19 117.503C1776.96 114.714 1776.95 110.212 1772.17 107.448L1735.34 86.1715C1730.56 83.4067 1722.81 83.426 1718.04 86.2145L1681.32 107.673C1676.55 110.461 1676.56 114.963 1681.35 117.728L1718.17 139.004C1722.96 141.769 1730.7 141.75 1735.47 138.961L1772.19 117.503Z" fill="#2A1B47"/>
            <path d="M1988.46 116.951C1993.24 114.162 1993.22 109.66 1988.44 106.896L1951.61 85.6195C1946.83 82.8547 1939.08 82.874 1934.31 85.6625L1897.59 107.121C1892.82 109.909 1892.83 114.411 1897.62 117.176L1934.44 138.452C1939.23 141.217 1946.97 141.198 1951.75 138.409L1988.46 116.951Z" fill="#2A1B47"/>
            <path d="M942.383 286.906C957.294 278.192 957.259 264.124 942.305 255.484C927.351 246.844 903.141 246.904 888.23 255.618C873.32 264.332 873.354 278.4 888.308 287.04C903.262 295.68 927.472 295.62 942.383 286.906Z" fill="#40227A"/>
            <path d="M799.293 308.435C804.064 305.647 811.812 305.627 816.597 308.392L853.421 329.668C858.206 332.433 858.217 336.935 853.446 339.723L816.728 361.182C811.956 363.97 804.209 363.989 799.424 361.225L762.6 339.949C757.815 337.184 757.804 332.682 762.575 329.893L799.293 308.435Z" fill="#2A1B47"/>
            <g>

            </g>

            <path d="M1448.68 495.343C1453.45 492.555 1461.2 492.535 1465.99 495.3L1502.81 516.576C1507.6 519.341 1507.61 523.843 1502.84 526.631L1466.12 548.09C1461.35 550.878 1453.6 550.898 1448.81 548.133L1411.99 526.857C1407.2 524.092 1407.19 519.59 1411.97 516.802L1448.68 495.343Z" fill="#143424"/>
            <path d="M1448.66 485.288C1453.43 482.5 1461.18 482.48 1465.96 485.245L1502.79 506.521C1507.57 509.286 1507.58 513.788 1502.81 516.576L1466.09 538.035C1461.32 540.823 1453.57 540.842 1448.79 538.078L1411.97 516.802C1407.18 514.037 1407.17 509.535 1411.94 506.746L1448.66 485.288Z" fill="#16432D"/>
            <path d="M1448.63 475.233C1453.4 472.445 1461.15 472.426 1465.94 475.19L1502.76 496.466C1507.55 499.231 1507.56 503.733 1502.79 506.522L1466.07 527.98C1461.3 530.769 1453.55 530.788 1448.76 528.023L1411.94 506.747C1407.15 503.982 1407.14 499.48 1411.92 496.692L1448.63 475.233Z" fill="#1E6742"/>
            <path d="M1448.61 465.178C1453.38 462.389 1461.13 462.37 1465.91 465.135L1502.74 486.411C1507.52 489.176 1507.53 493.678 1502.76 496.466L1466.04 517.925C1461.27 520.713 1453.52 520.732 1448.74 517.968L1411.92 496.692C1407.13 493.927 1407.12 489.425 1411.89 486.636L1448.61 465.178Z" fill="#2AA869"/>
            <path d="M1448.58 455.123C1453.35 452.334 1461.1 452.315 1465.89 455.08L1502.71 476.356C1507.5 479.121 1507.51 483.622 1502.74 486.411L1466.02 507.869C1461.25 510.658 1453.5 510.677 1448.71 507.912L1411.89 486.636C1407.11 483.872 1407.09 479.37 1411.87 476.581L1448.58 455.123Z" fill="#3DF498"/>
            <g filter="url(#filter0_f_4_32498)">
            <path d="M1448.58 455.123C1453.35 452.334 1461.1 452.315 1465.89 455.08L1502.71 476.356C1507.5 479.121 1507.51 483.622 1502.74 486.411L1466.02 507.869C1461.25 510.658 1453.5 510.677 1448.71 507.912L1411.89 486.636C1407.11 483.872 1407.09 479.37 1411.87 476.581L1448.58 455.123Z" fill="#3DF498"/>
            </g>
            </g>
            <defs>
            <filter id="filter0_f_4_32498" x="1335.68" y="382.529" width="243.239" height="197.935" filterUnits="userSpaceOnUse" color-interpolation-filters="sRGB">
            <feFlood flood-opacity="0" result="BackgroundImageFix"/>
            <feBlend mode="normal" in="SourceGraphic" in2="BackgroundImageFix" result="shape"/>
            <feGaussianBlur stdDeviation="33.7725" result="effect1_foregroundBlur_4_32498"/>
            </filter>
            <radialGradient id="paint0_diamond_4_32498" cx="0" cy="0" r="1" gradientUnits="userSpaceOnUse" gradientTransform="translate(1461.48 488.666) rotate(145.965) scale(727.821 1290.66)">
            <stop stop-color="white"/>
            <stop offset="0.687378" stop-color="#FBFBFB" stop-opacity="0.969937"/>
            <stop offset="1" stop-color="#737373" stop-opacity="0"/>
            </radialGradient>
            </defs>
        </svg>